<svg width="80" height="80" fill="none" xmlns="http://www.w3.org/2000/svg"><path d="M10 30V20a6.66 6.66 0 0 1 6.67-6.67h46.66A6.66 6.66 0 0 1 70 20v40a6.66 6.66 0 0 1-6.67 6.67h-20M30 66.67l-.84-2.1a7.68 7.68 0 0 0-1.92-2.8v0a7.7 7.7 0 0 0-5.23-2.05h-7.36a7.7 7.7 0 0 0-5.23 2.05v0a7.68 7.68 0 0 0-1.92 2.8l-.83 2.1" stroke="#1862AE" stroke-width="2" stroke-linecap="round" stroke-linejoin="round"/><path d="M22.46 41.71a5.84 5.84 0 1 1-8.26 8.25 5.84 5.84 0 0 1 8.26-8.25M36.67 50V30M46.67 50V38.93M56.67 50V31.83" stroke="#1862AE" stroke-width="2" stroke-linecap="round" stroke-linejoin="round"/></svg>