<svg width="80" height="80" fill="none" xmlns="http://www.w3.org/2000/svg"><path d="M53.33 64.39V65a5 5 0 0 1-5 5H11.67a5 5 0 0 1-5-5V15a5 5 0 0 1 5-5h36.66a5 5 0 0 1 5 5v31.67M53.33 30h4.31a10 10 0 0 1 4.47 1.06l2.18 1.09a10 10 0 0 1 3.85 3.4l5.2 7.78" stroke="#1862AE" stroke-width="2" stroke-linecap="round" stroke-linejoin="round"/><path d="M53.33 46.67v-.01l-7.92-8.4a5.06 5.06 0 0 0-7.26-.11v0a5.06 5.06 0 0 0-.64 6.38l9.96 14.98a13.33 13.33 0 0 0 6.88 5.26L70 70M58.33 46.67h-5M16.67 45h6.66M16.67 55H30M40 20 30 30l-6.67-3.33-6.66 6.66" stroke="#1862AE" stroke-width="2" stroke-linecap="round" stroke-linejoin="round"/></svg>