<svg width="80" height="80" fill="none" xmlns="http://www.w3.org/2000/svg"><path d="M46.67 49.67v19c0 2.59 5.22 4.68 11.67 4.68 6.44 0 11.67-2.1 11.67-4.67V49.67" stroke="#1862AE" stroke-width="2" stroke-linecap="round" stroke-linejoin="round"/><path d="M46.67 59.17c0 2.58 5.23 4.67 11.67 4.67 6.45 0 11.67-2.09 11.67-4.67M20 36.67h3.33M33.33 36.67h3.34M20 46.67h3.33M33.33 46.67h3.34M20 36.67h3.33M33.33 36.67h3.34M20 56.67h3.33M33.33 56.67h3.34M20 56.67h3.33M33.33 56.67h3.34M60 26.66H10M36.67 66.68H16.66A6.67 6.67 0 0 1 9.99 60V16.66a6.67 6.67 0 0 1 6.67-6.67h36.68A6.67 6.67 0 0 1 60 16.66v20M20 36.67h3.33M33.33 36.67h3.34M46.67 36.67H50" stroke="#1862AE" stroke-width="2" stroke-linecap="round" stroke-linejoin="round"/><path d="M46.67 49.67c0 2.58 5.23 4.67 11.67 4.67 6.45 0 11.67-2.1 11.67-4.67C70 47.09 64.78 45 58.34 45c-6.44 0-11.67 2.1-11.67 4.67" stroke="#1862AE" stroke-width="2" stroke-linecap="round" stroke-linejoin="round"/></svg>