<svg width="84" height="90" fill="none" xmlns="http://www.w3.org/2000/svg"><path d="M83.25 90H.94V59.94c0-1.54.16-3.17.5-4.88.37-1.75.94-3.48 1.69-5.19.75-1.7 1.7-3.33 2.87-4.87 1.2-1.54 2.65-2.9 4.31-4.06 1.71-1.21 3.67-2.17 5.88-2.88 2.2-.7 4.7-1.06 7.5-1.06H60.3c2.21 0 3.84-.54 4.88-1.63 1.08-1.12 1.62-2.74 1.62-4.87v-7.19c0-2.2-.54-3.87-1.62-5-1.09-1.12-2.67-1.68-4.75-1.68H8.25V.38h52.19c2.75 0 5.23.35 7.44 1.06 2.2.7 4.14 1.66 5.8 2.87a19.43 19.43 0 0 1 4.38 4.07A22.65 22.65 0 0 1 81 13.25c.8 1.67 1.35 3.38 1.69 5.13.37 1.7.56 3.3.56 4.8v7.32c0 4.2-.77 7.77-2.31 10.69a21.8 21.8 0 0 1-5.69 7.06c-2.3 1.8-4.77 3.1-7.44 3.94-2.62.79-5.08 1.19-7.37 1.19H23.69c-1.34 0-2.4.18-3.19.56-.8.37-1.42.87-1.88 1.5a7.02 7.02 0 0 0-.93 2.12c-.21.8-.38 1.59-.5 2.38v13.81h66.06V90Z" fill="url(#a)"/><defs><linearGradient id="a" x1="6" y1="30" x2="74.5" y2="63" gradientUnits="userSpaceOnUse"><stop stop-color="#00ABEF"/><stop offset="1" stop-color="#F835E2"/></linearGradient></defs></svg>