<svg width="76" height="90" fill="none" xmlns="http://www.w3.org/2000/svg"><path d="M75.75 67.19c0 4.2-.77 7.77-2.31 10.69a21.8 21.8 0 0 1-5.69 7.06 21.64 21.64 0 0 1-7.38 3.87c-2.66.8-5.14 1.19-7.43 1.19H.8V73.75h52.13c2.2 0 3.83-.56 4.87-1.69 1.09-1.12 1.63-2.75 1.63-4.87V53.38H.8V37h58.63V23.31c0-4.46-2.17-6.68-6.5-6.68H.8V.38h52.13c2.79 0 5.29.35 7.5 1.06 2.2.7 4.14 1.66 5.81 2.87a19.43 19.43 0 0 1 4.38 4.07 22.65 22.65 0 0 1 2.93 4.87c.75 1.67 1.3 3.38 1.63 5.13.37 1.7.56 3.3.56 4.8v44Z" fill="url(#a)"/><defs><linearGradient id="a" x1="3.51" y1="30" x2="70.2" y2="60.8" gradientUnits="userSpaceOnUse"><stop stop-color="#00ABEF"/><stop offset="1" stop-color="#F835E2"/></linearGradient></defs></svg>