<svg width="80" height="80" fill="none" xmlns="http://www.w3.org/2000/svg"><path d="M66.67 26.67v-10A6.67 6.67 0 0 0 60 10H16.67A6.67 6.67 0 0 0 10 16.67v46.66A6.67 6.67 0 0 0 16.67 70h10M23.33 26.67h30M23.33 40h10M23.33 53.33h3.34M58.33 50 40 68.33" stroke="#1862AE" stroke-width="2" stroke-linecap="round" stroke-linejoin="round"/><path d="M62.5 62.1A26.65 26.65 0 0 0 70 43.23a4.94 4.94 0 0 0-4.9-4.9 26.65 26.65 0 0 0-18.86 7.5M62.5 62.1c-5.4 5.38-13.4 6.11-17.9 1.63-4.48-4.49-3.75-12.5 1.64-17.89" stroke="#1862AE" stroke-width="2" stroke-linecap="round" stroke-linejoin="round"/></svg>