<svg width="80" height="80" fill="none" xmlns="http://www.w3.org/2000/svg"><path d="M70 43.56v19.68c0 3.73-3 6.76-6.71 6.76H16.71A6.73 6.73 0 0 1 10 63.24V20.09c0-3.73 3-6.76 6.71-6.76H40" stroke="#1862AE" stroke-width="2" stroke-linecap="round" stroke-linejoin="round"/><path d="m26.1 57.24 12.43-3.11a3.35 3.35 0 0 0 1.55-.88L68.05 25.3a6.67 6.67 0 0 0 0-9.43l-.58-.57a6.67 6.67 0 0 0-9.42 0L30.08 43.25c-.43.43-.73.97-.88 1.55l-3.1 12.44M52.77 20.57l10 10" stroke="#1862AE" stroke-width="2" stroke-linecap="round" stroke-linejoin="round"/><path d="M38.49 54.14c.04-.35.1-.7.1-1.07 0-4.6-3.73-8.33-8.33-8.33-.37 0-.72.06-1.07.1" stroke="#1862AE" stroke-width="2" stroke-linecap="round" stroke-linejoin="round"/></svg>