<svg width="80" height="80" fill="none" xmlns="http://www.w3.org/2000/svg"><path d="M43.13 36.87 19.57 60.43M22.11 43.33 10.57 40.6a1.67 1.67 0 0 1-.8-2.8l9.18-9.18a3.33 3.33 0 0 1 2.33-.97l10.35-.1" stroke="#1862AE" stroke-width="2" stroke-linecap="round" stroke-linejoin="round"/><path clip-rule="evenodd" d="m66.26 29.92 2.7-12.96a5 5 0 0 0-5.92-5.92l-12.96 2.7c-3.81.79-7.31 2.68-10.07 5.44L29.38 29.8a26.69 26.69 0 0 0-7.53 14.99l-.04.24a11.6 11.6 0 0 0 3.28 9.87v0a11.59 11.59 0 0 0 9.87 3.27l.24-.03a26.67 26.67 0 0 0 15-7.53l10.62-10.63a19.98 19.98 0 0 0 5.44-10.07v0Z" stroke="#1862AE" stroke-width="2" stroke-linecap="round" stroke-linejoin="round"/><path d="M44.67 15.71a74.72 74.72 0 0 1 19.62 19.62M36.67 57.89l2.72 11.54a1.67 1.67 0 0 0 2.8.8l9.18-9.18c.62-.62.97-1.45.98-2.33l.09-10.35" stroke="#1862AE" stroke-width="2" stroke-linecap="round" stroke-linejoin="round"/></svg>