<svg width="80" height="80" fill="none" xmlns="http://www.w3.org/2000/svg"><path d="M70 56.67v6.66A6.67 6.67 0 0 1 63.33 70h-6.66M10 30V16.67A6.67 6.67 0 0 1 16.67 10h6.66M33.33 26.67v-10A6.67 6.67 0 0 1 40 10h23.33A6.67 6.67 0 0 1 70 16.67V40a6.67 6.67 0 0 1-6.67 6.67H46.67M43.33 23.33H60M46.67 33.33H60" stroke="#1862AE" stroke-width="2" stroke-linecap="round" stroke-linejoin="round"/><circle cx="26.67" cy="45" r="8.33" stroke="#1862AE" stroke-width="2" stroke-linecap="round" stroke-linejoin="round"/><path d="M43.33 70c0-4.6-3.73-8.33-8.33-8.33H18.33A8.33 8.33 0 0 0 10 70" stroke="#1862AE" stroke-width="2" stroke-linecap="round" stroke-linejoin="round"/></svg>