<svg width="40" height="40" viewBox="0 0 40 40" fill="none" xmlns="http://www.w3.org/2000/svg">
<path d="M36.6667 23.3263H30.8333C30.3731 23.3263 30 22.9532 30 22.493V16.6597H35.3333" stroke="white" stroke-width="2" stroke-linecap="round" stroke-linejoin="round"/>
<path d="M30.9278 30.7322C31.6428 31.4471 31.8568 32.5224 31.4699 33.4566C31.083 34.3908 30.1714 35 29.1602 35C28.1491 35.0001 27.2375 34.391 26.8505 33.4569C26.4635 32.5227 26.6773 31.4474 27.3922 30.7324L27.3924 30.7322C28.3687 29.7559 29.9515 29.7559 30.9277 30.7322V30.7322" stroke="white" stroke-width="2" stroke-linecap="round" stroke-linejoin="round"/>
<path d="M12.5944 30.7321C13.3094 31.4471 13.5234 32.5224 13.1365 33.4566C12.7496 34.3908 11.838 35 10.8269 35C9.81571 35.0001 8.90408 34.391 8.51708 33.4568C8.13008 32.5227 8.34392 31.4474 9.05887 30.7323V30.7323L9.05937 30.7318C10.0355 29.7557 11.618 29.7557 12.5941 30.7318L12.5944 30.7321V30.7321" stroke="white" stroke-width="2" stroke-linecap="round" stroke-linejoin="round"/>
<path d="M26.8024 31.6666H13.1841" stroke="white" stroke-width="2" stroke-linecap="round" stroke-linejoin="round"/>
<path d="M31.5174 31.6665H35C35.9205 31.6665 36.6667 30.9203 36.6667 29.9999V20.6353C36.6667 20.2115 36.5858 19.7915 36.4283 19.398L34.1705 13.7549C33.6642 12.4894 32.4386 11.6597 31.0757 11.6597H25" stroke="white" stroke-width="2" stroke-linecap="round" stroke-linejoin="round"/>
<path d="M8.46936 31.6667H5.00004C4.07957 31.6667 3.33337 30.9205 3.33337 30V20" stroke="white" stroke-width="2" stroke-linecap="round" stroke-linejoin="round"/>
<path d="M3.33337 24.9931H23.3334C24.2538 24.9931 25 24.2469 25 23.3264V9.99308C25 9.07261 24.2538 8.32642 23.3334 8.32642H21.6667" stroke="white" stroke-width="2" stroke-linecap="round" stroke-linejoin="round"/>
<circle cx="10" cy="9.99992" r="6.66667" stroke="white" stroke-width="2" stroke-linecap="round" stroke-linejoin="round"/>
<path d="M9.58333 7.75V10.4167" stroke="white" stroke-width="2" stroke-linecap="round" stroke-linejoin="round"/>
<path d="M9.58337 10.4166L11.6667 11.6666" stroke="white" stroke-width="2" stroke-linecap="round" stroke-linejoin="round"/>
</svg>
