<svg width="194" height="194" viewBox="0 0 194 194" fill="none" xmlns="http://www.w3.org/2000/svg">
<g id="Office, Work/document-printer">
<g id="Group">
<path id="Union" fill-rule="evenodd" clip-rule="evenodd" d="M45.1788 39.2369C36.7596 40.5285 30.9816 48.4006 32.2732 56.8197L46.2421 147.876C47.5337 156.295 55.4058 162.073 63.825 160.782L77.8337 158.633C78.516 158.528 78.9843 157.89 78.8797 157.208C78.775 156.525 78.1369 156.057 77.4546 156.162L63.4459 158.311C56.3915 159.393 49.7954 154.551 48.7132 147.497L34.7443 56.4406C33.6621 49.3862 38.5035 42.7902 45.5579 41.708L122.606 29.8881C129.66 28.8059 136.256 33.6473 137.338 40.7017L141.636 68.7191C141.741 69.4015 142.379 69.8698 143.062 69.7651C143.744 69.6604 144.212 69.0224 144.108 68.34L139.809 40.3226C138.518 31.9035 130.646 26.1254 122.227 27.417L45.1788 39.2369ZM64.5599 72.1095C63.8776 72.2142 63.4092 72.8523 63.5139 73.5346C63.6186 74.217 64.2566 74.6853 64.939 74.5806L92.9564 70.2825C93.6388 70.1778 94.1071 69.5398 94.0024 68.8574C93.8977 68.175 93.2597 67.7067 92.5773 67.8114L64.5599 72.1095ZM111.073 94.9152L139.091 90.6171C142.959 90.0237 146.576 92.6785 147.17 96.5469L149.319 110.556L107.293 117.003L105.144 102.994C104.55 99.1257 107.205 95.5087 111.073 94.9152ZM114.019 137.479L149.041 132.106L152.264 153.119C152.858 156.987 150.203 160.604 146.334 161.198L125.321 164.421C121.453 165.015 117.836 162.36 117.242 158.492L114.019 137.479ZM67.8123 101.552C67.7076 100.87 68.1759 100.232 68.8583 100.127L82.867 97.9778C83.5493 97.8731 84.1874 98.3415 84.292 99.0238C84.3967 99.7062 83.9284 100.344 83.246 100.449L69.2374 102.598C68.555 102.703 67.9169 102.234 67.8123 101.552Z" fill="url(#paint0_linear_264_873)"/>
<path id="Path" fill-rule="evenodd" clip-rule="evenodd" d="M151.705 146.301L105.701 153.358C101.833 153.952 98.2155 151.297 97.6221 147.428L94.3587 126.156C93.7653 122.288 96.4201 118.671 100.289 118.077L156.323 109.481C160.192 108.888 163.809 111.542 164.402 115.411L167.665 136.683C168.259 140.551 165.604 144.168 161.736 144.762L151.705 146.301Z" fill="url(#paint1_linear_264_873)" stroke="#EAF2FA" stroke-width="2.5" stroke-linecap="round" stroke-linejoin="round"/>
</g>
</g>
<defs>
<linearGradient id="paint0_linear_264_873" x1="49.1537" y1="37.7106" x2="147.555" y2="146.834" gradientUnits="userSpaceOnUse">
<stop stop-color="#3792FF"/>
<stop offset="1" stop-color="#0041C8"/>
</linearGradient>
<linearGradient id="paint1_linear_264_873" x1="105.856" y1="116.982" x2="123.708" y2="157.904" gradientUnits="userSpaceOnUse">
<stop stop-color="#3792FF"/>
<stop offset="1" stop-color="#0041C8"/>
</linearGradient>
</defs>
</svg>
