<svg width="68" height="68" viewBox="0 0 68 68" fill="none" xmlns="http://www.w3.org/2000/svg">
<path d="M31.1667 8.49996H17C12.3056 8.49996 8.5 12.3055 8.5 17V19.8333M48.1667 59.5H51C55.6944 59.5 59.5 55.6944 59.5 51V34M34.877 39.9027H19.5635C18.1477 39.9027 17 38.755 17 37.3392V28.3333M36.8333 55.25C36.8333 57.5972 34.9305 59.5 32.5833 59.5C30.2361 59.5 28.3333 57.5972 28.3333 55.25M36.8333 55.25C36.8333 52.9027 34.9305 51 32.5833 51C30.2361 51 28.3333 52.9027 28.3333 55.25M36.8333 55.25H38.675C40.7875 55.25 42.5 53.5374 42.5 51.425V47.2164C42.5 45.0701 41.2873 43.1079 39.3676 42.148L33.3528 39.1406C32.625 38.7767 31.9918 38.2484 31.5036 37.5974L28.4008 33.4603C25.9802 30.2328 22.1812 28.3333 18.1468 28.3333H8.5M28.3333 55.25H8.5M49.0808 15.0841L50.082 15.0829M39.6667 15.5833C39.6667 10.1065 44.1065 5.66663 49.5833 5.66663C55.0602 5.66663 59.5 10.1065 59.5 15.5833C59.5 20.2906 54.2399 25.3251 51.3795 27.7142C50.3229 28.5401 48.8394 28.5397 47.7833 27.7133C44.9255 25.3238 39.6667 20.29 39.6667 15.5833Z" stroke="#1862AE" stroke-width="2" stroke-linecap="round" stroke-linejoin="round"/>
</svg>
