<svg width="202" height="202" viewBox="0 0 202 202" fill="none" xmlns="http://www.w3.org/2000/svg">
<g id="Group">
<path id="Union" fill-rule="evenodd" clip-rule="evenodd" d="M112.009 83.2216L106.844 56.6531L129.436 23.1577L142.416 40.039L162.931 45.7495L140.339 79.2449L113.771 84.4099C113.762 84.6349 113.693 84.8604 113.558 85.0608L99.3816 106.079C98.9955 106.651 98.2186 106.802 97.6463 106.416C97.0739 106.03 96.9229 105.254 97.3089 104.681L111.485 83.6628C111.62 83.4625 111.803 83.3137 112.009 83.2216ZM84.2614 46.2316C84.4344 46.9 84.0329 47.582 83.3645 47.755C52.4143 55.7671 33.2982 86.7717 40.0403 118.023C46.7824 149.275 76.9809 169.64 108.481 164.179C139.982 158.719 161.563 129.377 157.393 97.6793C157.303 96.9949 157.785 96.367 158.469 96.277C159.154 96.1869 159.782 96.6688 159.872 97.3532C164.217 130.38 141.73 160.953 108.909 166.643C76.0866 172.333 44.6214 151.113 37.5965 118.55C30.5717 85.9881 50.4896 53.6829 82.738 45.3348C83.4063 45.1618 84.0884 45.5633 84.2614 46.2316ZM88.6213 74.4854C89.2806 74.2808 89.6494 73.5805 89.4448 72.9211C89.2403 72.2618 88.54 71.8931 87.8806 72.0976C70.3598 77.5324 60.0089 95.574 64.16 113.442C68.3111 131.311 85.5554 142.942 103.678 140.096C121.8 137.251 134.65 120.894 133.124 102.613C133.067 101.925 132.463 101.414 131.775 101.472C131.087 101.529 130.576 102.133 130.633 102.821C132.049 119.796 120.118 134.984 103.29 137.626C86.4622 140.269 70.4497 129.469 66.5952 112.877C62.7406 96.2847 72.3521 79.5319 88.6213 74.4854Z" fill="url(#paint0_linear_264_866)"/>
</g>
<defs>
<linearGradient id="paint0_linear_264_866" x1="47.0801" y1="38.2379" x2="145.258" y2="160.517" gradientUnits="userSpaceOnUse">
<stop stop-color="#3792FF"/>
<stop offset="1" stop-color="#0041C8"/>
</linearGradient>
</defs>
</svg>
