<svg width="68" height="68" viewBox="0 0 68 68" fill="none" xmlns="http://www.w3.org/2000/svg">
<path d="M36.8334 34H45.3334" stroke="#1862AE" stroke-width="2" stroke-linecap="round" stroke-linejoin="round"/>
<path d="M36.8334 45.3333H45.3334" stroke="#1862AE" stroke-width="2" stroke-linecap="round" stroke-linejoin="round"/>
<path d="M45.3335 14.1667H51.0002C54.1298 14.1667 56.6669 16.7037 56.6669 19.8333V53.8333C56.6669 56.9629 54.1298 59.5 51.0002 59.5H17C13.8704 59.5 11.3334 56.9629 11.3334 53.8333V19.8333C11.3334 16.7037 13.8704 14.1667 17 14.1667H22.6667M36.8334 34H45.3334M22.6667 32.5833L25.5 35.4167L29.75 31.1667M36.8334 45.3333H45.3334M22.6667 43.9167L25.5 46.75L29.75 42.5M23.6668 19.8333H44.3334C44.8857 19.8333 45.3334 19.3856 45.3334 18.8333V9.5C45.3334 8.94772 44.8857 8.5 44.3334 8.5H23.6668C23.1145 8.5 22.6668 8.94771 22.6668 9.5V18.8333C22.6668 19.3856 23.1145 19.8333 23.6668 19.8333Z" stroke="#1862AE" stroke-width="2" stroke-linecap="round" stroke-linejoin="round"/>
</svg>
