<svg width="38" height="38" viewBox="0 0 38 38" fill="none" xmlns="http://www.w3.org/2000/svg">
<path d="M4.75 12.6667H33.25" stroke="white" stroke-width="1.5" stroke-linecap="round" stroke-linejoin="round"/>
<path d="M11.8747 26.9166V24.5732" stroke="white" stroke-width="1.5" stroke-linecap="round" stroke-linejoin="round"/>
<path d="M16.6247 26.9166V19.3958" stroke="white" stroke-width="1.5" stroke-linecap="round" stroke-linejoin="round"/>
<path d="M21.3747 26.9167V23.6392" stroke="white" stroke-width="1.5" stroke-linecap="round" stroke-linejoin="round"/>
<path d="M26.1247 26.9166V20.2666" stroke="white" stroke-width="1.5" stroke-linecap="round" stroke-linejoin="round"/>
<path d="M17.2048 8.7005C17.2 8.7005 17.1968 8.70366 17.1968 8.70841C17.1968 8.71316 17.2 8.71633 17.2048 8.71633C17.2095 8.71633 17.2127 8.71316 17.2127 8.70841C17.2127 8.70366 17.2095 8.7005 17.2048 8.7005" stroke="white" stroke-width="1.5" stroke-linecap="round" stroke-linejoin="round"/>
<path d="M13.1842 8.7005C13.1795 8.7005 13.1763 8.70366 13.1763 8.70841C13.1763 8.71316 13.1795 8.71633 13.1842 8.71633C13.189 8.71633 13.1922 8.71316 13.1922 8.70841C13.1922 8.70366 13.189 8.7005 13.1842 8.7005" stroke="white" stroke-width="1.5" stroke-linecap="round" stroke-linejoin="round"/>
<path d="M9.15006 8.69244C9.14531 8.69244 9.14215 8.69561 9.14215 8.70036C9.14215 8.70511 9.14531 8.70827 9.15006 8.70827C9.15481 8.70827 9.15798 8.70511 9.15798 8.70036C9.15798 8.69561 9.15481 8.69244 9.15006 8.69244" stroke="white" stroke-width="1.5" stroke-linecap="round" stroke-linejoin="round"/>
<path fill-rule="evenodd" clip-rule="evenodd" d="M30.0833 33.25H7.91667C6.16708 33.25 4.75 31.8329 4.75 30.0833V7.91667C4.75 6.16708 6.16708 4.75 7.91667 4.75H30.0833C31.8329 4.75 33.25 6.16708 33.25 7.91667V30.0833C33.25 31.8329 31.8329 33.25 30.0833 33.25Z" stroke="white" stroke-width="1.5" stroke-linecap="round" stroke-linejoin="round"/>
</svg>
