<svg width="258" height="41" viewBox="0 0 258 41" fill="none" xmlns="http://www.w3.org/2000/svg">
<path d="M45.15 10.2578C45.15 10.0556 45.3144 9.89175 45.5172 9.89175H49.3732C49.5043 9.89175 49.6254 9.9614 49.6911 10.0745L56.1104 21.1367C56.2512 21.3795 56.6025 21.3806 56.7449 21.1388L63.2618 10.0725C63.3277 9.96052 63.4482 9.89175 63.5785 9.89175H67.2186C67.4214 9.89175 67.5858 10.0556 67.5858 10.2578V30.0548C67.5858 30.257 67.4214 30.4208 67.2186 30.4208H64.3007C64.0979 30.4208 63.9335 30.257 63.9335 30.0548V16.3561C63.9335 15.9871 63.4477 15.8499 63.2536 16.1641L58.1857 24.3669C58.1188 24.475 58.0005 24.5409 57.873 24.5409H54.8343C54.7066 24.5409 54.588 24.4747 54.5213 24.3662L49.4826 16.1703C49.289 15.8553 48.8024 15.9921 48.8024 16.3616V30.0548C48.8024 30.257 48.638 30.4208 48.4352 30.4208H45.5172C45.3144 30.4208 45.15 30.257 45.15 30.0548V10.2578Z" fill="#1862AE"/>
<path d="M75.1997 30.4208C74.9969 30.4208 74.8325 30.257 74.8325 30.0548V10.2578C74.8325 10.0556 74.9969 9.89175 75.1997 9.89175H88.9152C89.118 9.89175 89.2824 10.0556 89.2824 10.2578V12.8774C89.2824 13.0796 89.118 13.2434 88.9152 13.2434H78.8665C78.6637 13.2434 78.4993 13.4073 78.4993 13.6095V17.8038C78.4993 18.006 78.6637 18.1698 78.8665 18.1698H88.1181C88.3209 18.1698 88.4853 18.3337 88.4853 18.5359V21.1555C88.4853 21.3577 88.3209 21.5215 88.1181 21.5215H78.8665C78.6637 21.5215 78.4993 21.6854 78.4993 21.8876V26.7031C78.4993 26.9053 78.6637 27.0692 78.8665 27.0692H88.9152C89.118 27.0692 89.2824 27.233 89.2824 27.4352V30.0548C89.2824 30.257 89.118 30.4208 88.9152 30.4208H75.1997Z" fill="#1862AE"/>
<path d="M92.8478 10.2578C92.8478 10.0556 93.0122 9.89175 93.215 9.89175H111.09C111.293 9.89175 111.457 10.0556 111.457 10.2578V12.8774C111.457 13.0796 111.293 13.2434 111.09 13.2434H104.346C104.143 13.2434 103.979 13.4073 103.979 13.6095V30.0548C103.979 30.257 103.814 30.4208 103.612 30.4208H100.694C100.491 30.4208 100.326 30.257 100.326 30.0548V13.6095C100.326 13.4073 100.162 13.2434 99.9592 13.2434H93.215C93.0122 13.2434 92.8478 13.0796 92.8478 12.8774V10.2578Z" fill="#1862AE"/>
<path d="M121.482 10.123C121.537 9.9834 121.673 9.89175 121.823 9.89175H125.324C125.475 9.89175 125.61 9.9835 125.666 10.1232L133.521 29.9202C133.616 30.1604 133.438 30.4208 133.179 30.4208H130.208C130.061 30.4208 129.928 30.3334 129.87 30.1987L127.756 25.2687C127.698 25.134 127.566 25.0466 127.419 25.0466H119.497C119.35 25.0466 119.217 25.134 119.159 25.2687L117.046 30.1987C116.988 30.3334 116.855 30.4208 116.708 30.4208H113.954C113.695 30.4208 113.517 30.1603 113.613 29.92L121.482 10.123ZM125.852 21.7093C126.109 21.7093 126.287 21.452 126.194 21.2123L123.8 14.9853C123.679 14.6722 123.235 14.6718 123.114 14.9847L120.708 21.2118C120.615 21.4515 120.793 21.7093 121.051 21.7093H125.852Z" fill="#1862AE"/>
<path d="M138.169 10.2578C138.169 10.0556 138.333 9.89175 138.536 9.89175H142.392C142.523 9.89175 142.644 9.9614 142.71 10.0745L149.129 21.1367C149.27 21.3795 149.621 21.3806 149.763 21.1388L156.28 10.0725C156.346 9.96052 156.467 9.89175 156.597 9.89175H160.237C160.44 9.89175 160.604 10.0556 160.604 10.2578V30.0548C160.604 30.257 160.44 30.4208 160.237 30.4208H157.319C157.116 30.4208 156.952 30.257 156.952 30.0548V16.3561C156.952 15.9871 156.466 15.8499 156.272 16.1641L151.204 24.3669C151.137 24.475 151.019 24.5409 150.892 24.5409H147.853C147.725 24.5409 147.607 24.4747 147.54 24.3662L142.501 16.1703C142.308 15.8553 141.821 15.9921 141.821 16.3616V30.0548C141.821 30.257 141.657 30.4208 141.454 30.4208H138.536C138.333 30.4208 138.169 30.257 138.169 30.0548V10.2578Z" fill="#1862AE"/>
<path d="M177.649 9.67505C179.745 9.67505 181.61 10.0844 183.243 10.903C184.876 11.7217 186.161 12.916 187.098 14.4859C188.036 16.0461 188.504 17.8616 188.504 19.9324C188.504 22.032 188.045 23.8956 187.127 25.5233C186.209 27.1414 184.92 28.3983 183.258 29.294C181.596 30.1897 179.687 30.6375 177.533 30.6375C176.112 30.6375 174.764 30.4208 173.489 29.9874C172.214 29.5444 171.069 28.9039 170.054 28.066C169.049 27.2184 168.247 26.1205 167.648 24.7721C167.059 23.4237 166.764 21.902 166.764 20.2069C166.764 18.0976 167.228 16.2436 168.155 14.6448C169.083 13.0364 170.368 11.8084 172.011 10.9608C173.653 10.1036 175.533 9.67505 177.649 9.67505ZM179.547 13.2723C178.881 13.099 178.199 13.0123 177.504 13.0123C176.808 13.0123 176.132 13.099 175.475 13.2723C174.818 13.4361 174.185 13.7009 173.576 14.0669C172.977 14.4233 172.45 14.8663 171.996 15.396C171.542 15.9258 171.18 16.5807 170.909 17.3608C170.639 18.1313 170.503 18.9837 170.503 19.9179C170.503 22.1428 171.194 23.9294 172.576 25.2777C173.958 26.6261 175.682 27.3003 177.75 27.3003C178.61 27.3003 179.441 27.1607 180.243 26.8813C181.055 26.602 181.803 26.1879 182.489 25.6389C183.175 25.0899 183.726 24.3435 184.142 23.3996C184.557 22.4558 184.765 21.3819 184.765 20.178C184.765 19.1956 184.62 18.2999 184.33 17.4908C184.04 16.6722 183.654 15.9932 183.171 15.4538C182.697 14.9145 182.142 14.457 181.504 14.0814C180.876 13.7057 180.224 13.4361 179.547 13.2723Z" fill="#1862AE"/>
<path d="M210.621 15.7717C210.621 16.4266 210.539 17.0526 210.375 17.6498C210.22 18.2373 209.969 18.8055 209.621 19.3545C209.283 19.9035 208.814 20.3947 208.215 20.8281C207.748 21.1715 207.211 21.4545 206.605 21.677C206.367 21.7641 206.269 22.053 206.417 22.2574L211.911 29.8405C212.086 30.0826 211.913 30.4208 211.613 30.4208H207.765C207.647 30.4208 207.537 30.3644 207.468 30.2691L201.919 22.6123C201.85 22.517 201.739 22.4606 201.621 22.4606H198.683C198.481 22.4606 198.316 22.6245 198.316 22.8266V30.0548C198.316 30.257 198.152 30.4208 197.949 30.4208H195.031C194.828 30.4208 194.664 30.257 194.664 30.0548V10.2578C194.664 10.0556 194.828 9.89175 195.031 9.89175H203.432C203.867 9.89175 204.263 9.9062 204.621 9.93509C204.988 9.95436 205.428 10.0121 205.94 10.1085C206.462 10.1951 206.92 10.3155 207.317 10.4696C207.722 10.6237 208.138 10.8501 208.563 11.1486C208.998 11.4472 209.355 11.7987 209.636 12.2033C209.925 12.5981 210.162 13.1038 210.346 13.7202C210.529 14.327 210.621 15.0108 210.621 15.7717ZM198.683 13.229C198.481 13.229 198.316 13.3929 198.316 13.595V18.7429C198.316 18.945 198.481 19.1089 198.683 19.1089H201.679C202.258 19.1089 202.771 19.0896 203.215 19.0511C203.659 19.0126 204.118 18.9355 204.592 18.82C205.065 18.6947 205.452 18.5262 205.751 18.3143C206.061 18.1024 206.312 17.8087 206.505 17.4331C206.708 17.0574 206.809 16.6144 206.809 16.1039C206.809 14.1873 205.326 13.229 202.36 13.229H198.683Z" fill="#1862AE"/>
<path d="M217.882 10.2578C217.882 10.0556 218.047 9.89175 218.25 9.89175H225.274C225.699 9.89175 226.061 9.89657 226.361 9.9062C226.661 9.9062 227.057 9.92546 227.549 9.96399C228.052 10.0025 228.482 10.0603 228.839 10.1374C229.206 10.2048 229.622 10.3059 230.086 10.4407C230.559 10.5756 230.96 10.7393 231.289 10.9319C231.627 11.1149 231.97 11.3557 232.318 11.6543C232.675 11.9528 232.96 12.2899 233.173 12.6656C233.385 13.0316 233.559 13.4698 233.695 13.9802C233.84 14.4907 233.912 15.0541 233.912 15.6705C233.912 16.5373 233.796 17.3175 233.564 18.0109C233.342 18.7044 233.047 19.2871 232.68 19.759C232.323 20.2309 231.859 20.6403 231.289 20.987C230.728 21.3241 230.158 21.589 229.578 21.7816C229.008 21.9742 228.342 22.1283 227.578 22.2439C226.815 22.3498 226.115 22.4221 225.477 22.4606C224.849 22.4895 224.129 22.5039 223.317 22.5039C222.988 22.5039 222.522 22.4906 221.92 22.464C221.71 22.4548 221.535 22.6213 221.535 22.8304V30.0548C221.535 30.257 221.37 30.4208 221.167 30.4208H218.25C218.047 30.4208 217.882 30.257 217.882 30.0548V10.2578ZM221.902 13.2434C221.699 13.2434 221.535 13.4073 221.535 13.6095V18.7511C221.535 18.9442 221.685 19.1043 221.878 19.115C222.497 19.1495 223.063 19.1667 223.578 19.1667C224.235 19.1667 224.801 19.1571 225.274 19.1378C225.757 19.1089 226.269 19.0607 226.81 18.9933C227.361 18.9259 227.82 18.82 228.187 18.6755C228.564 18.531 228.912 18.348 229.231 18.1265C229.55 17.905 229.786 17.6209 229.941 17.2741C230.105 16.9274 230.187 16.5229 230.187 16.0606C230.187 15.6464 230.12 15.2853 229.984 14.9771C229.849 14.6592 229.641 14.404 229.361 14.2114C229.091 14.0091 228.791 13.8406 228.463 13.7057C228.144 13.5709 227.752 13.4746 227.289 13.4168C226.834 13.3494 226.4 13.306 225.984 13.2868C225.569 13.2579 225.086 13.2434 224.535 13.2434H221.902Z" fill="#1862AE"/>
<path d="M254.348 10.2578C254.348 10.0556 254.512 9.89175 254.715 9.89175H257.633C257.836 9.89175 258 10.0556 258 10.2578V30.0548C258 30.257 257.836 30.4208 257.633 30.4208H254.715C254.512 30.4208 254.348 30.257 254.348 30.0548V21.8731C254.348 21.671 254.183 21.5071 253.98 21.5071H243.7C243.497 21.5071 243.333 21.671 243.333 21.8731V30.0548C243.333 30.257 243.168 30.4208 242.966 30.4208H240.048C239.845 30.4208 239.68 30.257 239.68 30.0548V10.2578C239.68 10.0556 239.845 9.89175 240.048 9.89175H242.966C243.168 9.89175 243.333 10.0556 243.333 10.2578V17.7894C243.333 17.9915 243.497 18.1554 243.7 18.1554H253.98C254.183 18.1554 254.348 17.9915 254.348 17.7894V10.2578Z" fill="#1862AE"/>
<path d="M114.332 40.0702H113.681V34.7507H116.568V35.3392H114.332V37.2242H116.43V37.8128H114.332V40.0702Z" fill="#707070"/>
<path d="M121.361 38.1927C121.361 38.5603 121.289 38.8931 121.144 39.1911C120.999 39.4841 120.778 39.7176 120.479 39.8914C120.184 40.0603 119.808 40.1447 119.35 40.1447C118.708 40.1447 118.219 39.9659 117.881 39.6083C117.549 39.2457 117.382 38.7689 117.382 38.1778V34.7507H118.033V38.2002C118.033 38.6323 118.144 38.9676 118.366 39.206C118.593 39.4444 118.933 39.5636 119.386 39.5636C119.7 39.5636 119.953 39.5065 120.146 39.3923C120.343 39.273 120.488 39.1116 120.58 38.908C120.671 38.6994 120.717 38.461 120.717 38.1927V34.7507H121.361V38.1927Z" fill="#707070"/>
<path d="M122.724 40.0702V34.7507H123.376V39.4742H125.633V40.0702H122.724Z" fill="#707070"/>
<path d="M127.169 40.0702H126.518V34.7507H129.405V35.3392H127.169V37.2242H129.267V37.8128H127.169V40.0702Z" fill="#707070"/>
<path d="M131.724 40.0702H129.857V39.6828L130.465 39.5413V35.2871L129.857 35.1381V34.7507H131.724V35.1381L131.116 35.2871V39.5413L131.724 39.6828V40.0702Z" fill="#707070"/>
<path d="M132.721 40.0702V34.7507H133.372V39.4742H135.63V40.0702H132.721Z" fill="#707070"/>
<path d="M136.515 40.0702V34.7507H137.166V39.4742H139.424V40.0702H136.515Z" fill="#707070"/>
<path d="M142.588 40.0702L140.888 35.4063H140.859C140.869 35.5056 140.876 35.6323 140.881 35.7863C140.89 35.9402 140.898 36.1091 140.902 36.2929C140.907 36.4717 140.91 36.6555 140.91 36.8442V40.0702H140.309V34.7507H141.271L142.863 39.1091H142.892L144.512 34.7507H145.467V40.0702H144.823V36.7995C144.823 36.6257 144.826 36.4543 144.831 36.2854C144.836 36.1116 144.843 35.9502 144.852 35.8012C144.862 35.6472 144.869 35.518 144.874 35.4137H144.845L143.123 40.0702H142.588Z" fill="#707070"/>
<path d="M149.759 40.0702H146.873V34.7507H149.759V35.3392H147.524V37.0007H149.629V37.5818H147.524V39.4817H149.759V40.0702Z" fill="#707070"/>
<path d="M154.987 40.0702H154.228L151.464 35.6522H151.435C151.44 35.7416 151.445 35.8409 151.45 35.9502C151.459 36.0594 151.466 36.1786 151.471 36.3078C151.476 36.432 151.481 36.5611 151.486 36.6952C151.491 36.8293 151.493 36.9634 151.493 37.0975V40.0702H150.892V34.7507H151.645L154.401 39.1538H154.43C154.425 39.0942 154.421 39.0123 154.416 38.908C154.411 38.7987 154.406 38.6795 154.401 38.5504C154.396 38.4163 154.392 38.2797 154.387 38.1406C154.382 38.0015 154.38 37.8724 154.38 37.7532V34.7507H154.987V40.0702Z" fill="#707070"/>
<path d="M158.024 40.0702H157.373V35.3392H155.76V34.7507H159.63V35.3392H158.024V40.0702Z" fill="#707070"/>
<path d="M162.56 38.9464C162.56 38.6686 162.667 38.3845 162.88 38.0938C163.1 37.8031 163.398 37.5448 163.774 37.3187C163.554 37.0345 163.388 36.7697 163.275 36.5243C163.162 36.2724 163.106 36.0528 163.106 35.8655C163.106 35.5877 163.216 35.3487 163.435 35.1485C163.661 34.9483 163.931 34.8482 164.244 34.8482C164.545 34.8482 164.803 34.9612 165.016 35.1873C165.235 35.4133 165.345 35.6878 165.345 36.0108C165.345 36.2627 165.26 36.5114 165.091 36.7568C164.922 37.0022 164.69 37.2122 164.395 37.3865L165.42 38.7623C165.458 38.6073 165.486 38.462 165.505 38.3263C165.53 38.1842 165.543 38.0518 165.543 37.9291H165.947C165.947 38.181 165.925 38.4103 165.881 38.617C165.844 38.8172 165.784 38.9884 165.703 39.1305L166.53 40.2543H165.966L165.402 39.5664C165.245 39.799 165.041 39.9798 164.79 40.109C164.545 40.2446 164.285 40.3125 164.009 40.3125C163.608 40.3125 163.266 40.18 162.984 39.9152C162.701 39.644 162.56 39.321 162.56 38.9464ZM163.031 38.8786C163.031 39.1563 163.134 39.3953 163.341 39.5955C163.548 39.7893 163.796 39.8862 164.084 39.8862C164.291 39.8862 164.492 39.8248 164.687 39.7021C164.887 39.5794 165.06 39.4114 165.204 39.1983L164 37.6578C163.699 37.8387 163.46 38.0389 163.285 38.2585C163.115 38.4717 163.031 38.6783 163.031 38.8786ZM163.576 35.943C163.576 36.0657 163.623 36.2239 163.718 36.4177C163.812 36.605 163.95 36.8182 164.131 37.0571C164.357 36.9215 164.536 36.76 164.668 36.5727C164.799 36.3854 164.865 36.1981 164.865 36.0108C164.865 35.8041 164.809 35.6265 164.696 35.4779C164.583 35.3294 164.448 35.2551 164.291 35.2551C164.097 35.2551 163.928 35.3229 163.783 35.4586C163.645 35.5942 163.576 35.7557 163.576 35.943Z" fill="#707070"/>
<path d="M172.367 40.0702L170.667 35.4063H170.638C170.647 35.5056 170.655 35.6323 170.66 35.7863C170.669 35.9402 170.676 36.1091 170.681 36.2929C170.686 36.4717 170.688 36.6555 170.688 36.8442V40.0702H170.088V34.7507H171.05L172.642 39.1091H172.671L174.291 34.7507H175.246V40.0702H174.602V36.7995C174.602 36.6257 174.605 36.4543 174.61 36.2854C174.614 36.1116 174.622 35.9502 174.631 35.8012C174.641 35.6472 174.648 35.518 174.653 35.4137H174.624L172.902 40.0702H172.367Z" fill="#707070"/>
<path d="M179.892 40.0702L179.27 38.4237H177.223L176.608 40.0702H175.95L177.968 34.7283H178.554L180.565 40.0702H179.892ZM178.496 36.2184C178.482 36.1786 178.458 36.1066 178.424 36.0023C178.39 35.898 178.356 35.7912 178.323 35.682C178.294 35.5677 178.269 35.4808 178.25 35.4212C178.226 35.5205 178.2 35.6224 178.171 35.7267C178.146 35.826 178.12 35.9179 178.091 36.0023C178.067 36.0868 178.045 36.1588 178.026 36.2184L177.44 37.8277H179.075L178.496 36.2184Z" fill="#707070"/>
<path d="M182.697 34.7507C183.126 34.7507 183.478 34.8078 183.753 34.922C184.033 35.0313 184.24 35.1977 184.375 35.4212C184.511 35.6447 184.578 35.9253 184.578 36.2631C184.578 36.5462 184.527 36.7821 184.426 36.9709C184.325 37.1596 184.195 37.3111 184.035 37.4253C183.881 37.5346 183.717 37.6215 183.543 37.6861L184.961 40.0702H184.202L182.95 37.8724H181.923V40.0702H181.272V34.7507H182.697ZM182.661 35.3318H181.923V37.3061H182.697C182.977 37.3061 183.206 37.2689 183.384 37.1944C183.563 37.1149 183.693 37.0007 183.775 36.8517C183.862 36.7027 183.905 36.5164 183.905 36.2929C183.905 36.0594 183.859 35.8732 183.768 35.7341C183.681 35.595 183.546 35.4932 183.363 35.4286C183.179 35.3641 182.945 35.3318 182.661 35.3318Z" fill="#707070"/>
<path d="M189.549 40.0702H188.782L186.951 37.5297L186.423 38.0065V40.0702H185.772V34.7507H186.423V37.3732C186.568 37.2043 186.715 37.0354 186.865 36.8666C187.014 36.6977 187.164 36.5288 187.313 36.3599L188.709 34.7507H189.469L187.422 37.0677L189.549 40.0702Z" fill="#707070"/>
<path d="M193.138 40.0702H190.251V34.7507H193.138V35.3392H190.903V37.0007H193.008V37.5818H190.903V39.4817H193.138V40.0702Z" fill="#707070"/>
<path d="M195.906 40.0702H195.255V35.3392H193.642V34.7507H197.512V35.3392H195.906V40.0702Z" fill="#707070"/>
<path d="M199.745 40.0702H197.879V39.6828L198.487 39.5413V35.2871L197.879 35.1381V34.7507H199.745V35.1381L199.138 35.2871V39.5413L199.745 39.6828V40.0702Z" fill="#707070"/>
<path d="M204.838 40.0702H204.078L201.314 35.6522H201.285C201.29 35.7416 201.295 35.8409 201.3 35.9502C201.31 36.0594 201.317 36.1786 201.322 36.3078C201.326 36.432 201.331 36.5611 201.336 36.6952C201.341 36.8293 201.343 36.9634 201.343 37.0975V40.0702H200.743V34.7507H201.495L204.252 39.1538H204.281C204.276 39.0942 204.271 39.0123 204.266 38.908C204.261 38.7987 204.256 38.6795 204.252 38.5504C204.247 38.4163 204.242 38.2797 204.237 38.1406C204.232 38.0015 204.23 37.8724 204.23 37.7532V34.7507H204.838V40.0702Z" fill="#707070"/>
<path d="M208.482 37.2614H210.269V39.8691C209.989 39.9635 209.707 40.033 209.423 40.0777C209.138 40.1224 208.815 40.1447 208.453 40.1447C207.918 40.1447 207.467 40.0355 207.1 39.8169C206.734 39.5934 206.454 39.278 206.261 38.8707C206.073 38.4585 205.979 37.9717 205.979 37.4104C205.979 36.8542 206.085 36.3724 206.297 35.9651C206.51 35.5578 206.813 35.2424 207.209 35.0189C207.609 34.7904 208.091 34.6762 208.656 34.6762C208.945 34.6762 209.218 34.7035 209.473 34.7581C209.734 34.8127 209.975 34.8897 210.197 34.9891L209.951 35.5702C209.767 35.4858 209.56 35.4137 209.329 35.3541C209.102 35.2945 208.866 35.2647 208.62 35.2647C208.21 35.2647 207.858 35.3517 207.563 35.5255C207.269 35.6993 207.045 35.9477 206.891 36.2705C206.736 36.5884 206.659 36.9684 206.659 37.4104C206.659 37.8326 206.724 38.2076 206.854 38.5355C206.989 38.8583 207.199 39.1116 207.484 39.2954C207.768 39.4742 208.142 39.5636 208.605 39.5636C208.759 39.5636 208.895 39.5586 209.01 39.5487C209.131 39.5338 209.239 39.5164 209.336 39.4966C209.437 39.4767 209.531 39.4568 209.618 39.437V37.8575H208.482V37.2614Z" fill="#707070"/>
<path d="M215.723 35.2647C215.448 35.2647 215.2 35.3144 214.978 35.4137C214.756 35.5081 214.568 35.6497 214.414 35.8384C214.259 36.0222 214.141 36.2482 214.059 36.5164C213.977 36.7796 213.936 37.0777 213.936 37.4104C213.936 37.8475 214.001 38.2275 214.131 38.5504C214.267 38.8732 214.464 39.1216 214.725 39.2954C214.99 39.4692 215.32 39.5562 215.716 39.5562C215.943 39.5562 216.157 39.5363 216.36 39.4966C216.562 39.4568 216.76 39.4072 216.953 39.3476V39.9287C216.76 40.0032 216.56 40.0578 216.352 40.0926C216.15 40.1274 215.906 40.1447 215.622 40.1447C215.096 40.1447 214.657 40.033 214.305 39.8095C213.953 39.586 213.688 39.2681 213.509 38.8558C213.336 38.4436 213.249 37.9593 213.249 37.403C213.249 37.0007 213.302 36.6331 213.408 36.3003C213.519 35.9676 213.678 35.6795 213.885 35.4361C214.098 35.1927 214.358 35.0065 214.667 34.8773C214.976 34.7432 215.33 34.6762 215.73 34.6762C215.996 34.6762 216.251 34.7035 216.497 34.7581C216.743 34.8127 216.963 34.8897 217.156 34.9891L216.895 35.5553C216.736 35.4808 216.557 35.4137 216.36 35.3541C216.167 35.2945 215.955 35.2647 215.723 35.2647Z" fill="#707070"/>
<path d="M222.446 37.403C222.446 37.8153 222.396 38.1903 222.294 38.528C222.193 38.8608 222.041 39.1489 221.838 39.3923C221.641 39.6356 221.392 39.8219 221.093 39.951C220.799 40.0802 220.457 40.1447 220.066 40.1447C219.661 40.1447 219.309 40.0802 219.01 39.951C218.711 39.8169 218.462 39.6307 218.265 39.3923C218.067 39.1489 217.92 38.8583 217.823 38.5206C217.727 38.1828 217.679 37.8078 217.679 37.3955C217.679 36.8492 217.765 36.3724 217.939 35.9651C218.113 35.5578 218.376 35.2399 218.728 35.0114C219.085 34.7829 219.533 34.6687 220.073 34.6687C220.589 34.6687 221.023 34.7829 221.375 35.0114C221.728 35.2349 221.993 35.5528 222.171 35.9651C222.355 36.3724 222.446 36.8517 222.446 37.403ZM218.366 37.403C218.366 37.85 218.426 38.235 218.547 38.5578C218.667 38.8807 218.853 39.129 219.104 39.3028C219.359 39.4767 219.68 39.5636 220.066 39.5636C220.457 39.5636 220.775 39.4767 221.021 39.3028C221.272 39.129 221.457 38.8807 221.578 38.5578C221.699 38.235 221.759 37.85 221.759 37.403C221.759 36.7325 221.624 36.2085 221.354 35.831C221.084 35.4485 220.657 35.2573 220.073 35.2573C219.683 35.2573 219.359 35.3442 219.104 35.518C218.853 35.6869 218.667 35.9328 218.547 36.2556C218.426 36.5735 218.366 36.956 218.366 37.403Z" fill="#707070"/>
<path d="M227.686 40.0702H226.926L224.163 35.6522H224.134C224.138 35.7416 224.143 35.8409 224.148 35.9502C224.158 36.0594 224.165 36.1786 224.17 36.3078C224.175 36.432 224.179 36.5611 224.184 36.6952C224.189 36.8293 224.191 36.9634 224.191 37.0975V40.0702H223.591V34.7507H224.343L227.1 39.1538H227.129C227.124 39.0942 227.119 39.0123 227.114 38.908C227.109 38.7987 227.105 38.6795 227.1 38.5504C227.095 38.4163 227.09 38.2797 227.085 38.1406C227.08 38.0015 227.078 37.8724 227.078 37.7532V34.7507H227.686V40.0702Z" fill="#707070"/>
<path d="M232.018 38.6472C232.018 38.9651 231.943 39.2358 231.793 39.4593C231.644 39.6779 231.429 39.8467 231.149 39.9659C230.874 40.0851 230.549 40.1447 230.173 40.1447C229.98 40.1447 229.794 40.1348 229.616 40.1149C229.442 40.0951 229.283 40.0678 229.138 40.033C228.994 39.9933 228.866 39.9461 228.755 39.8914V39.2507C228.928 39.3302 229.143 39.4022 229.399 39.4668C229.659 39.5313 229.927 39.5636 230.202 39.5636C230.457 39.5636 230.672 39.5288 230.846 39.4593C231.019 39.3898 231.149 39.2904 231.236 39.1613C231.323 39.0322 231.366 38.8807 231.366 38.7068C231.366 38.533 231.33 38.3865 231.258 38.2672C231.186 38.148 231.06 38.0388 230.882 37.9394C230.708 37.8351 230.465 37.7258 230.151 37.6116C229.929 37.5272 229.734 37.4378 229.565 37.3434C229.401 37.2441 229.264 37.1323 229.153 37.0081C229.042 36.884 228.957 36.7424 228.899 36.5835C228.846 36.4245 228.82 36.2407 228.82 36.0321C228.82 35.749 228.89 35.5081 229.03 35.3094C229.17 35.1058 229.362 34.9493 229.608 34.8401C229.859 34.7308 230.146 34.6762 230.469 34.6762C230.754 34.6762 231.014 34.7035 231.251 34.7581C231.487 34.8127 231.702 34.8848 231.895 34.9742L231.692 35.5478C231.514 35.4684 231.318 35.4013 231.106 35.3467C230.899 35.2921 230.682 35.2647 230.455 35.2647C230.238 35.2647 230.057 35.297 229.912 35.3616C229.768 35.4262 229.659 35.518 229.587 35.6373C229.514 35.7515 229.478 35.8856 229.478 36.0396C229.478 36.2184 229.514 36.3674 229.587 36.4866C229.659 36.6058 229.777 36.7126 229.941 36.807C230.105 36.9013 230.327 37.0032 230.607 37.1124C230.911 37.2267 231.166 37.3508 231.374 37.485C231.586 37.6141 231.745 37.7706 231.851 37.9543C231.962 38.1381 232.018 38.3691 232.018 38.6472Z" fill="#707070"/>
<path d="M236.986 38.1927C236.986 38.5603 236.914 38.8931 236.769 39.1911C236.625 39.4841 236.403 39.7176 236.104 39.8914C235.81 40.0603 235.433 40.1447 234.975 40.1447C234.334 40.1447 233.844 39.9659 233.507 39.6083C233.174 39.2457 233.007 38.7689 233.007 38.1778V34.7507H233.659V38.2002C233.659 38.6323 233.769 38.9676 233.991 39.206C234.218 39.4444 234.558 39.5636 235.011 39.5636C235.325 39.5636 235.578 39.5065 235.771 39.3923C235.969 39.273 236.113 39.1116 236.205 38.908C236.297 38.6994 236.343 38.461 236.343 38.1927V34.7507H236.986V38.1927Z" fill="#707070"/>
<path d="M238.35 40.0702V34.7507H239.001V39.4742H241.258V40.0702H238.35Z" fill="#707070"/>
<path d="M243.637 40.0702H242.986V35.3392H241.373V34.7507H245.243V35.3392H243.637V40.0702Z" fill="#707070"/>
<path d="M247.476 40.0702H245.61V39.6828L246.218 39.5413V35.2871L245.61 35.1381V34.7507H247.476V35.1381L246.869 35.2871V39.5413L247.476 39.6828V40.0702Z" fill="#707070"/>
<path d="M252.569 40.0702H251.809L249.045 35.6522H249.016C249.021 35.7416 249.026 35.8409 249.031 35.9502C249.041 36.0594 249.048 36.1786 249.053 36.3078C249.057 36.432 249.062 36.5611 249.067 36.6952C249.072 36.8293 249.074 36.9634 249.074 37.0975V40.0702H248.474V34.7507H249.226L251.983 39.1538H252.012C252.007 39.0942 252.002 39.0123 251.997 38.908C251.992 38.7987 251.987 38.6795 251.983 38.5504C251.978 38.4163 251.973 38.2797 251.968 38.1406C251.963 38.0015 251.961 37.8724 251.961 37.7532V34.7507H252.569V40.0702Z" fill="#707070"/>
<path d="M256.213 37.2614H258V39.8691C257.72 39.9635 257.438 40.033 257.154 40.0777C256.869 40.1224 256.546 40.1447 256.184 40.1447C255.649 40.1447 255.198 40.0355 254.831 39.8169C254.465 39.5934 254.185 39.278 253.992 38.8707C253.804 38.4585 253.71 37.9717 253.71 37.4104C253.71 36.8542 253.816 36.3724 254.028 35.9651C254.24 35.5578 254.544 35.2424 254.94 35.0189C255.34 34.7904 255.822 34.6762 256.387 34.6762C256.676 34.6762 256.949 34.7035 257.204 34.7581C257.465 34.8127 257.706 34.8897 257.928 34.9891L257.682 35.5702C257.498 35.4858 257.291 35.4137 257.06 35.3541C256.833 35.2945 256.597 35.2647 256.351 35.2647C255.941 35.2647 255.589 35.3517 255.294 35.5255C255 35.6993 254.776 35.9477 254.621 36.2705C254.467 36.5884 254.39 36.9684 254.39 37.4104C254.39 37.8326 254.455 38.2076 254.585 38.5355C254.72 38.8583 254.93 39.1116 255.215 39.2954C255.499 39.4742 255.873 39.5636 256.336 39.5636C256.49 39.5636 256.625 39.5586 256.741 39.5487C256.862 39.5338 256.97 39.5164 257.067 39.4966C257.168 39.4767 257.262 39.4568 257.349 39.437V37.8575H256.213V37.2614Z" fill="#707070"/>
<path d="M5.44844 6.89828C6.58971 6.41249 6.92435 7.09494 6.92435 8.08939C6.92759 8.10087 6.93085 8.11194 6.93414 8.1226L6.48161 19.9434C6.4293 21.3098 7.11504 22.5989 8.27732 23.3193C9.44072 24.0403 10.9019 24.08 12.1028 23.4234L25.4908 16.1026C26.8184 15.3767 28.2467 16.8839 27.4504 18.1705L16.617 35.6757C14.7346 38.5534 13.5995 38.702 12.5592 38.2322L0.736813 31.4087C0.280881 31.1456 0 30.6591 0 30.1327V10.8828C0 10.3567 0.280582 9.87047 0.736126 9.60722L5.40548 6.90889C5.41138 6.91138 5.42537 6.9081 5.44844 6.89828Z" fill="#1862AE"/>
<path d="M21.0516 39.806L35.5805 31.3997C36.0357 31.1363 36.316 30.6504 36.316 30.1245V16.442C36.2915 14.3826 36.0263 12.8329 34.3124 15.4946L20.4782 37.8487C20.4782 37.8489 20.4783 37.8492 20.4784 37.8494C19.324 39.7625 18.6421 41.0848 21.0516 39.806Z" fill="#1862AE"/>
<path d="M30.2843 6.53307L19.6501 0.394635C18.7386 -0.131546 17.6156 -0.131545 16.704 0.394636L12.6947 2.70896C12.0415 3.17459 11.6701 3.67023 11.5069 4.46726L10.638 17.2496C10.558 18.426 11.8236 19.215 12.8446 18.6253L30.5725 8.38768C30.5754 8.38399 30.5783 8.38029 30.5813 8.37657C31.7121 7.75781 31.3806 7.24858 30.3111 6.55305C30.2993 6.54533 30.2904 6.53869 30.2843 6.53307Z" fill="#1862AE"/>
</svg>
