<svg width="225" height="36" viewBox="0 0 225 36" fill="none" xmlns="http://www.w3.org/2000/svg">
<g id="Group 39880">
<g id="Metamorph">
<path d="M39.375 8.94569C39.375 8.7694 39.5184 8.62649 39.6952 8.62649H43.058C43.1723 8.62649 43.278 8.68723 43.3352 8.78586L48.9334 18.4332C49.0563 18.6449 49.3626 18.6459 49.4868 18.4349L55.1702 8.7841C55.2277 8.68646 55.3327 8.62649 55.4463 8.62649H58.6209C58.7977 8.62649 58.9411 8.7694 58.9411 8.94569V26.2106C58.9411 26.3869 58.7977 26.5298 58.6209 26.5298H56.0761C55.8993 26.5298 55.7559 26.3869 55.7559 26.2106V14.264C55.7559 13.9422 55.3323 13.8226 55.163 14.0966L50.7433 21.2501C50.685 21.3445 50.5818 21.4019 50.4706 21.4019H47.8206C47.7092 21.4019 47.6058 21.3442 47.5476 21.2495L43.1534 14.102C42.9846 13.8273 42.5602 13.9466 42.5602 14.2688V26.2106C42.5602 26.3869 42.4168 26.5298 42.2399 26.5298H39.6952C39.5184 26.5298 39.375 26.3869 39.375 26.2106V8.94569Z" fill="#1862AE"/>
<path d="M65.5811 26.5298C65.4043 26.5298 65.2609 26.3869 65.2609 26.2106V8.94569C65.2609 8.7694 65.4043 8.62649 65.5811 8.62649H77.5423C77.7192 8.62649 77.8626 8.7694 77.8626 8.94569V11.2303C77.8626 11.4066 77.7192 11.5495 77.5423 11.5495H68.7789C68.6021 11.5495 68.4587 11.6924 68.4587 11.8687V15.5266C68.4587 15.7028 68.6021 15.8458 68.7789 15.8458H76.8472C77.024 15.8458 77.1674 15.9887 77.1674 16.165V18.4495C77.1674 18.6258 77.024 18.7687 76.8472 18.7687H68.7789C68.6021 18.7687 68.4587 18.9117 68.4587 19.0879V23.2876C68.4587 23.4639 68.6021 23.6068 68.7789 23.6068H77.5423C77.7192 23.6068 77.8626 23.7497 77.8626 23.926V26.2106C77.8626 26.3869 77.7192 26.5298 77.5423 26.5298H65.5811Z" fill="#1862AE"/>
<path d="M80.9719 8.94569C80.9719 8.7694 81.1153 8.62649 81.2921 8.62649H96.8809C97.0578 8.62649 97.2011 8.7694 97.2011 8.94569V11.2303C97.2011 11.4066 97.0578 11.5495 96.8809 11.5495H90.9993C90.8225 11.5495 90.6791 11.6924 90.6791 11.8687V26.2106C90.6791 26.3869 90.5357 26.5298 90.3589 26.5298H87.8142C87.6373 26.5298 87.4939 26.3869 87.4939 26.2106V11.8687C87.4939 11.6924 87.3506 11.5495 87.1737 11.5495H81.2921C81.1153 11.5495 80.9719 11.4066 80.9719 11.2303V8.94569Z" fill="#1862AE"/>
<path d="M105.943 8.82811C105.992 8.70641 106.11 8.62649 106.241 8.62649H109.294C109.426 8.62649 109.544 8.7065 109.592 8.82829L116.442 26.0932C116.525 26.3027 116.371 26.5298 116.145 26.5298H113.553C113.425 26.5298 113.309 26.4535 113.259 26.336L111.415 22.0367C111.365 21.9191 111.249 21.8429 111.121 21.8429H104.213C104.084 21.8429 103.969 21.9191 103.918 22.0367L102.075 26.336C102.024 26.4535 101.908 26.5298 101.78 26.5298H99.3788C99.1527 26.5298 98.9978 26.3025 99.0811 26.093L105.943 8.82811ZM109.754 18.9325C109.979 18.9325 110.134 18.7081 110.053 18.4991L107.965 13.0685C107.86 12.7955 107.473 12.7952 107.367 13.068L105.269 18.4986C105.188 18.7077 105.343 18.9325 105.567 18.9325H109.754Z" fill="#1862AE"/>
<path d="M120.496 8.94569C120.496 8.7694 120.639 8.62649 120.816 8.62649H124.179C124.293 8.62649 124.399 8.68723 124.456 8.78586L130.054 18.4332C130.177 18.6449 130.484 18.6459 130.608 18.4349L136.291 8.7841C136.349 8.68646 136.454 8.62649 136.567 8.62649H139.742C139.919 8.62649 140.062 8.7694 140.062 8.94569V26.2106C140.062 26.3869 139.919 26.5298 139.742 26.5298H137.197C137.02 26.5298 136.877 26.3869 136.877 26.2106V14.264C136.877 13.9422 136.453 13.8226 136.284 14.0966L131.864 21.2501C131.806 21.3445 131.703 21.4019 131.592 21.4019H128.942C128.83 21.4019 128.727 21.3442 128.669 21.2495L124.274 14.102C124.105 13.8273 123.681 13.9466 123.681 14.2688V26.2106C123.681 26.3869 123.538 26.5298 123.361 26.5298H120.816C120.639 26.5298 120.496 26.3869 120.496 26.2106V8.94569Z" fill="#1862AE"/>
<path d="M154.926 8.4375C156.755 8.4375 158.381 8.79447 159.805 9.50842C161.229 10.2224 162.35 11.2639 163.167 12.633C163.985 13.9937 164.393 15.577 164.393 17.3828C164.393 19.2139 163.993 20.8392 163.192 22.2587C162.392 23.6698 161.267 24.7659 159.818 25.547C158.368 26.3282 156.704 26.7188 154.825 26.7188C153.586 26.7188 152.411 26.5298 151.299 26.1518C150.186 25.7654 149.188 25.2069 148.303 24.4761C147.427 23.737 146.727 22.7794 146.205 21.6035C145.691 20.4276 145.434 19.1005 145.434 17.6222C145.434 15.7828 145.838 14.1659 146.647 12.7716C147.456 11.3689 148.577 10.298 150.009 9.55882C151.442 8.81127 153.081 8.4375 154.926 8.4375ZM156.582 11.5747C156.001 11.4235 155.406 11.3479 154.8 11.3479C154.193 11.3479 153.603 11.4235 153.03 11.5747C152.457 11.7175 151.905 11.9484 151.374 12.2676C150.852 12.5784 150.393 12.9648 149.997 13.4267C149.601 13.8887 149.285 14.4599 149.049 15.1402C148.813 15.8122 148.695 16.5555 148.695 17.3702C148.695 19.3105 149.297 20.8686 150.502 22.0445C151.707 23.2204 153.211 23.8084 155.015 23.8084C155.765 23.8084 156.489 23.6866 157.189 23.443C157.896 23.1994 158.55 22.8382 159.148 22.3595C159.746 21.8807 160.226 21.2298 160.589 20.4066C160.951 19.5835 161.132 18.647 161.132 17.597C161.132 16.7403 161.006 15.9591 160.753 15.2536C160.5 14.5397 160.163 13.9475 159.742 13.4771C159.329 13.0068 158.844 12.6078 158.288 12.2802C157.741 11.9526 157.172 11.7175 156.582 11.5747Z" fill="#1862AE"/>
<path d="M183.681 13.7543C183.681 14.3255 183.61 14.8714 183.466 15.3922C183.332 15.9046 183.112 16.4001 182.809 16.8789C182.514 17.3576 182.106 17.786 181.583 18.164C181.176 18.4635 180.708 18.7103 180.179 18.9043C179.972 18.9802 179.885 19.2323 180.014 19.4105L184.806 26.0237C184.959 26.2348 184.808 26.5298 184.546 26.5298H181.191C181.088 26.5298 180.991 26.4806 180.931 26.3975L176.092 19.72C176.032 19.6369 175.935 19.5877 175.833 19.5877H173.27C173.094 19.5877 172.95 19.7306 172.95 19.9069V26.2106C172.95 26.3869 172.807 26.5298 172.63 26.5298H170.085C169.908 26.5298 169.765 26.3869 169.765 26.2106V8.94569C169.765 8.7694 169.908 8.62649 170.085 8.62649H177.412C177.791 8.62649 178.137 8.63909 178.448 8.66428C178.769 8.68108 179.152 8.73148 179.599 8.81547C180.054 8.89107 180.454 8.99606 180.799 9.13045C181.153 9.26484 181.516 9.46222 181.886 9.72261C182.266 9.98299 182.577 10.2896 182.822 10.6423C183.075 10.9867 183.281 11.4277 183.441 11.9652C183.601 12.4944 183.681 13.0908 183.681 13.7543ZM173.27 11.5369C173.094 11.5369 172.95 11.6798 172.95 11.8561V16.3455C172.95 16.5218 173.094 16.6647 173.27 16.6647H175.883C176.388 16.6647 176.835 16.6479 177.222 16.6143C177.61 16.5807 178.01 16.5135 178.423 16.4127C178.836 16.3035 179.173 16.1565 179.434 15.9717C179.704 15.787 179.923 15.5308 180.092 15.2032C180.269 14.8756 180.357 14.4893 180.357 14.0441C180.357 12.3726 179.064 11.5369 176.477 11.5369H173.27Z" fill="#1862AE"/>
<path d="M190.014 8.94569C190.014 8.7694 190.157 8.62649 190.334 8.62649H196.46C196.831 8.62649 197.147 8.63069 197.408 8.63909C197.669 8.63909 198.015 8.65588 198.444 8.68948C198.882 8.72308 199.257 8.77348 199.569 8.84067C199.889 8.89947 200.252 8.98766 200.656 9.10525C201.069 9.22284 201.419 9.36563 201.705 9.53362C202 9.69321 202.299 9.90319 202.603 10.1636C202.915 10.424 203.163 10.7179 203.348 11.0455C203.534 11.3647 203.686 11.7469 203.803 12.192C203.93 12.6372 203.993 13.1286 203.993 13.6661C203.993 14.4221 203.892 15.1024 203.69 15.7072C203.496 16.3119 203.239 16.8201 202.919 17.2317C202.607 17.6432 202.202 18.0002 201.705 18.3026C201.217 18.5966 200.719 18.8275 200.214 18.9955C199.717 19.1635 199.135 19.2979 198.47 19.3987C197.804 19.4911 197.193 19.5541 196.637 19.5877C196.089 19.6129 195.461 19.6255 194.754 19.6255C194.467 19.6255 194.06 19.6139 193.535 19.5907C193.352 19.5826 193.199 19.7278 193.199 19.9102V26.2106C193.199 26.3869 193.056 26.5298 192.879 26.5298H190.334C190.157 26.5298 190.014 26.3869 190.014 26.2106V8.94569ZM193.519 11.5495C193.342 11.5495 193.199 11.6924 193.199 11.8687V16.3527C193.199 16.5211 193.33 16.6607 193.499 16.67C194.038 16.7001 194.532 16.7151 194.981 16.7151C195.554 16.7151 196.047 16.7067 196.46 16.6899C196.881 16.6647 197.328 16.6227 197.8 16.5639C198.28 16.5051 198.68 16.4127 199 16.2867C199.329 16.1607 199.632 16.0011 199.911 15.808C200.189 15.6148 200.395 15.367 200.53 15.0646C200.673 14.7622 200.745 14.4095 200.745 14.0063C200.745 13.6451 200.686 13.3301 200.568 13.0614C200.45 12.7842 200.269 12.5616 200.024 12.3936C199.788 12.2172 199.527 12.0702 199.241 11.9526C198.963 11.8351 198.621 11.7511 198.217 11.7007C197.821 11.6419 197.442 11.6041 197.079 11.5873C196.717 11.5621 196.296 11.5495 195.815 11.5495H193.519Z" fill="#1862AE"/>
<path d="M221.815 8.94569C221.815 8.7694 221.958 8.62649 222.135 8.62649H224.68C224.857 8.62649 225 8.7694 225 8.94569V26.2106C225 26.3869 224.857 26.5298 224.68 26.5298H222.135C221.958 26.5298 221.815 26.3869 221.815 26.2106V19.0753C221.815 18.8991 221.672 18.7561 221.495 18.7561H212.529C212.352 18.7561 212.209 18.8991 212.209 19.0753V26.2106C212.209 26.3869 212.065 26.5298 211.889 26.5298H209.344C209.167 26.5298 209.024 26.3869 209.024 26.2106V8.94569C209.024 8.7694 209.167 8.62649 209.344 8.62649H211.889C212.065 8.62649 212.209 8.7694 212.209 8.94569V15.514C212.209 15.6902 212.352 15.8332 212.529 15.8332H221.495C221.672 15.8332 221.815 15.6902 221.815 15.514V8.94569Z" fill="#1862AE"/>
</g>
<g id="Fulfillment &#38; marketing consulting">
<path d="M99.7085 34.945H99.1406V30.3058H101.658V30.8191H99.7085V32.463H101.538V32.9763H99.7085V34.945Z" fill="#707070"/>
<path d="M105.838 33.3077C105.838 33.6282 105.775 33.9184 105.649 34.1783C105.523 34.4339 105.329 34.6375 105.068 34.7891C104.812 34.9364 104.484 35.01 104.084 35.01C103.525 35.01 103.098 34.8541 102.803 34.5422C102.513 34.226 102.368 33.8101 102.368 33.2947V30.3058H102.936V33.3142C102.936 33.691 103.033 33.9834 103.226 34.1913C103.424 34.3992 103.72 34.5032 104.116 34.5032C104.389 34.5032 104.61 34.4534 104.778 34.3538C104.951 34.2498 105.077 34.109 105.157 33.9314C105.237 33.7495 105.277 33.5416 105.277 33.3077V30.3058H105.838V33.3077Z" fill="#707070"/>
<path d="M107.027 34.945V30.3058H107.595V34.4252H109.563V34.945H107.027Z" fill="#707070"/>
<path d="M110.904 34.945H110.336V30.3058H112.853V30.8191H110.904V32.463H112.733V32.9763H110.904V34.945Z" fill="#707070"/>
<path d="M114.876 34.945H113.248V34.6072L113.778 34.4837V30.7737L113.248 30.6437V30.3058H114.876V30.6437L114.346 30.7737V34.4837L114.876 34.6072V34.945Z" fill="#707070"/>
<path d="M115.745 34.945V30.3058H116.313V34.4252H118.282V34.945H115.745Z" fill="#707070"/>
<path d="M119.054 34.945V30.3058H119.622V34.4252H121.59V34.945H119.054Z" fill="#707070"/>
<path d="M124.35 34.945L122.867 30.8776H122.842C122.851 30.9643 122.857 31.0747 122.861 31.209C122.869 31.3433 122.876 31.4905 122.88 31.6508C122.884 31.8068 122.886 31.967 122.886 32.1316V34.945H122.363V30.3058H123.202L124.59 34.1069H124.615L126.028 30.3058H126.861V34.945H126.3V32.0926C126.3 31.941 126.302 31.7916 126.306 31.6443C126.31 31.4927 126.316 31.3519 126.325 31.222C126.333 31.0877 126.34 30.9751 126.344 30.8841H126.318L124.817 34.945H124.35Z" fill="#707070"/>
<path d="M130.604 34.945H128.086V30.3058H130.604V30.8191H128.654V32.2681H130.49V32.7749H128.654V34.4317H130.604V34.945Z" fill="#707070"/>
<path d="M135.163 34.945H134.501L132.091 31.092H132.065C132.07 31.17 132.074 31.2566 132.078 31.3519C132.086 31.4472 132.093 31.5512 132.097 31.6638C132.101 31.7721 132.105 31.8847 132.11 32.0017C132.114 32.1186 132.116 32.2356 132.116 32.3525V34.945H131.592V30.3058H132.248L134.652 34.1458H134.677C134.673 34.0939 134.669 34.0224 134.665 33.9314C134.661 33.8361 134.656 33.7322 134.652 33.6195C134.648 33.5026 134.644 33.3835 134.64 33.2622C134.635 33.1409 134.633 33.0283 134.633 32.9243V30.3058H135.163V34.945Z" fill="#707070"/>
<path d="M137.812 34.945H137.244V30.8191H135.837V30.3058H139.212V30.8191H137.812V34.945Z" fill="#707070"/>
<path d="M141.768 33.9649C141.768 33.7227 141.861 33.4749 142.047 33.2214C142.238 32.9679 142.498 32.7426 142.826 32.5454C142.635 32.2976 142.49 32.0667 142.391 31.8526C142.293 31.6329 142.244 31.4414 142.244 31.2781C142.244 31.0359 142.339 30.8274 142.531 30.6528C142.728 30.4782 142.963 30.3909 143.236 30.3909C143.499 30.3909 143.723 30.4895 143.909 30.6866C144.101 30.8838 144.196 31.1232 144.196 31.4048C144.196 31.6245 144.122 31.8413 143.975 32.0554C143.827 32.2694 143.625 32.4525 143.368 32.6046L144.262 33.8044C144.295 33.6692 144.319 33.5425 144.336 33.4242C144.358 33.3002 144.369 33.1848 144.369 33.0777H144.721C144.721 33.2974 144.702 33.4974 144.664 33.6776C144.631 33.8523 144.579 34.0015 144.508 34.1254L145.23 35.1056H144.738L144.246 34.5057C144.109 34.7084 143.931 34.8662 143.712 34.9788C143.499 35.0971 143.272 35.1563 143.031 35.1563C142.681 35.1563 142.383 35.0408 142.137 34.8098C141.891 34.5733 141.768 34.2916 141.768 33.9649ZM142.178 33.9058C142.178 34.148 142.268 34.3564 142.449 34.531C142.629 34.7 142.845 34.7845 143.097 34.7845C143.277 34.7845 143.452 34.731 143.622 34.624C143.797 34.5169 143.947 34.3705 144.073 34.1846L143.023 32.8412C142.761 32.9989 142.553 33.1735 142.4 33.365C142.252 33.5509 142.178 33.7312 142.178 33.9058ZM142.654 31.3457C142.654 31.4527 142.695 31.5907 142.777 31.7597C142.859 31.923 142.979 32.1089 143.138 32.3173C143.335 32.199 143.491 32.0582 143.606 31.8949C143.72 31.7315 143.778 31.5682 143.778 31.4048C143.778 31.2246 143.729 31.0697 143.63 30.9401C143.532 30.8105 143.414 30.7458 143.277 30.7458C143.108 30.7458 142.96 30.8049 142.834 30.9232C142.714 31.0415 142.654 31.1823 142.654 31.3457Z" fill="#707070"/>
<path d="M150.32 34.945L148.837 30.8776H148.812C148.82 30.9643 148.827 31.0747 148.831 31.209C148.839 31.3433 148.846 31.4905 148.85 31.6508C148.854 31.8068 148.856 31.967 148.856 32.1316V34.945H148.333V30.3058H149.172L150.56 34.1069H150.585L151.998 30.3058H152.831V34.945H152.269V32.0926C152.269 31.941 152.272 31.7916 152.276 31.6443C152.28 31.4927 152.286 31.3519 152.295 31.222C152.303 31.0877 152.309 30.9751 152.314 30.8841H152.288L150.787 34.945H150.32Z" fill="#707070"/>
<path d="M156.883 34.945L156.34 33.5091H154.555L154.019 34.945H153.444L155.205 30.2864H155.716L157.47 34.945H156.883ZM155.665 31.5858C155.653 31.5512 155.632 31.4884 155.602 31.3974C155.573 31.3065 155.543 31.2133 155.514 31.118C155.489 31.0184 155.468 30.9426 155.451 30.8906C155.43 30.9772 155.407 31.066 155.381 31.157C155.36 31.2436 155.337 31.3238 155.312 31.3974C155.291 31.4711 155.272 31.5339 155.255 31.5858L154.744 32.9893H156.17L155.665 31.5858Z" fill="#707070"/>
<path d="M159.329 30.3058C159.703 30.3058 160.01 30.3557 160.25 30.4553C160.494 30.5506 160.675 30.6957 160.793 30.8906C160.91 31.0855 160.969 31.3303 160.969 31.6248C160.969 31.8717 160.925 32.0775 160.837 32.2421C160.748 32.4067 160.635 32.5388 160.496 32.6384C160.361 32.7337 160.218 32.8095 160.067 32.8658L161.304 34.945H160.641L159.55 33.0283H158.654V34.945H158.086V30.3058H159.329ZM159.297 30.8126H158.654V32.5345H159.329C159.573 32.5345 159.773 32.502 159.928 32.437C160.084 32.3677 160.197 32.2681 160.269 32.1381C160.345 32.0082 160.382 31.8457 160.382 31.6508C160.382 31.4472 160.343 31.2848 160.263 31.1635C160.187 31.0422 160.069 30.9534 159.909 30.8971C159.749 30.8408 159.545 30.8126 159.297 30.8126Z" fill="#707070"/>
<path d="M165.304 34.945H164.635L163.039 32.7294L162.579 33.1452V34.945H162.011V30.3058H162.579V32.5929C162.705 32.4457 162.833 32.2984 162.963 32.1511C163.094 32.0038 163.224 31.8566 163.355 31.7093L164.572 30.3058H165.235L163.449 32.3266L165.304 34.945Z" fill="#707070"/>
<path d="M168.434 34.945H165.917V30.3058H168.434V30.8191H166.485V32.2681H168.321V32.7749H166.485V34.4317H168.434V34.945Z" fill="#707070"/>
<path d="M170.849 34.945H170.281V30.8191H168.874V30.3058H172.249V30.8191H170.849V34.945Z" fill="#707070"/>
<path d="M174.197 34.945H172.569V34.6072L173.099 34.4837V30.7737L172.569 30.6437V30.3058H174.197V30.6437L173.667 30.7737V34.4837L174.197 34.6072V34.945Z" fill="#707070"/>
<path d="M178.638 34.945H177.975L175.565 31.092H175.54C175.544 31.17 175.548 31.2566 175.552 31.3519C175.561 31.4472 175.567 31.5512 175.571 31.6638C175.575 31.7721 175.58 31.8847 175.584 32.0017C175.588 32.1186 175.59 32.2356 175.59 32.3525V34.945H175.067V30.3058H175.723L178.126 34.1458H178.152C178.147 34.0939 178.143 34.0224 178.139 33.9314C178.135 33.8361 178.131 33.7322 178.126 33.6195C178.122 33.5026 178.118 33.3835 178.114 33.2622C178.11 33.1409 178.108 33.0283 178.108 32.9243V30.3058H178.638V34.945Z" fill="#707070"/>
<path d="M181.816 32.4955H183.374V34.7696C183.13 34.8519 182.884 34.9125 182.636 34.9515C182.388 34.9905 182.106 35.01 181.791 35.01C181.324 35.01 180.93 34.9147 180.611 34.7241C180.291 34.5292 180.047 34.2541 179.879 33.8989C179.715 33.5394 179.633 33.1149 179.633 32.6254C179.633 32.1403 179.725 31.7201 179.91 31.3649C180.096 31.0097 180.361 30.7347 180.705 30.5398C181.055 30.3405 181.475 30.2409 181.967 30.2409C182.22 30.2409 182.457 30.2647 182.68 30.3123C182.907 30.36 183.118 30.4271 183.311 30.5138L183.097 31.0206C182.937 30.9469 182.756 30.8841 182.554 30.8321C182.356 30.7802 182.15 30.7542 181.936 30.7542C181.578 30.7542 181.271 30.83 181.015 30.9816C180.758 31.1332 180.562 31.3498 180.428 31.6313C180.293 31.9085 180.226 32.2399 180.226 32.6254C180.226 32.9936 180.283 33.3207 180.396 33.6065C180.514 33.8881 180.697 34.109 180.945 34.2693C181.193 34.4252 181.519 34.5032 181.923 34.5032C182.058 34.5032 182.175 34.4989 182.276 34.4902C182.382 34.4772 182.476 34.462 182.56 34.4447C182.649 34.4274 182.731 34.4101 182.806 34.3927V33.0153H181.816V32.4955Z" fill="#707070"/>
<path d="M188.131 30.7542C187.891 30.7542 187.674 30.7975 187.481 30.8841C187.287 30.9664 187.123 31.0899 186.989 31.2545C186.854 31.4147 186.751 31.6118 186.68 31.8457C186.608 32.0753 186.572 32.3352 186.572 32.6254C186.572 33.0066 186.629 33.338 186.743 33.6195C186.86 33.9011 187.033 34.1177 187.26 34.2693C187.491 34.4209 187.779 34.4967 188.124 34.4967C188.322 34.4967 188.509 34.4794 188.686 34.4447C188.862 34.4101 189.035 34.3667 189.203 34.3148V34.8216C189.035 34.8865 188.86 34.9342 188.68 34.9645C188.503 34.9948 188.29 35.01 188.042 35.01C187.584 35.01 187.201 34.9125 186.894 34.7176C186.587 34.5227 186.356 34.2455 186.2 33.8859C186.049 33.5264 185.973 33.1041 185.973 32.6189C185.973 32.2681 186.019 31.9475 186.112 31.6573C186.208 31.3671 186.347 31.1159 186.528 30.9036C186.713 30.6914 186.94 30.5289 187.209 30.4163C187.479 30.2993 187.788 30.2409 188.137 30.2409C188.368 30.2409 188.591 30.2647 188.806 30.3123C189.02 30.36 189.212 30.4271 189.38 30.5138L189.153 31.0076C189.014 30.9426 188.858 30.8841 188.686 30.8321C188.518 30.7802 188.333 30.7542 188.131 30.7542Z" fill="#707070"/>
<path d="M193.994 32.6189C193.994 32.9785 193.95 33.3055 193.861 33.6001C193.773 33.8903 193.64 34.1415 193.464 34.3538C193.291 34.566 193.075 34.7284 192.814 34.8411C192.557 34.9537 192.259 35.01 191.918 35.01C191.565 35.01 191.258 34.9537 190.997 34.8411C190.736 34.7241 190.52 34.5617 190.347 34.3538C190.175 34.1415 190.046 33.8881 189.962 33.5936C189.878 33.299 189.836 32.972 189.836 32.6124C189.836 32.136 189.912 31.7201 190.063 31.3649C190.215 31.0097 190.444 30.7325 190.751 30.5333C191.062 30.334 191.453 30.2344 191.924 30.2344C192.374 30.2344 192.753 30.334 193.06 30.5333C193.367 30.7282 193.598 31.0054 193.754 31.3649C193.914 31.7201 193.994 32.1381 193.994 32.6189ZM190.435 32.6189C190.435 33.0088 190.488 33.3445 190.593 33.626C190.698 33.9076 190.86 34.1242 191.079 34.2758C191.302 34.4274 191.582 34.5032 191.918 34.5032C192.259 34.5032 192.536 34.4274 192.751 34.2758C192.97 34.1242 193.132 33.9076 193.237 33.626C193.342 33.3445 193.394 33.0088 193.394 32.6189C193.394 32.0342 193.277 31.5772 193.041 31.248C192.806 30.9144 192.433 30.7477 191.924 30.7477C191.584 30.7477 191.302 30.8235 191.079 30.9751C190.86 31.1224 190.698 31.3368 190.593 31.6183C190.488 31.8956 190.435 32.2291 190.435 32.6189Z" fill="#707070"/>
<path d="M198.563 34.945H197.901L195.491 31.092H195.465C195.47 31.17 195.474 31.2566 195.478 31.3519C195.486 31.4472 195.493 31.5512 195.497 31.6638C195.501 31.7721 195.505 31.8847 195.51 32.0017C195.514 32.1186 195.516 32.2356 195.516 32.3525V34.945H194.992V30.3058H195.648L198.052 34.1458H198.077C198.073 34.0939 198.069 34.0224 198.065 33.9314C198.061 33.8361 198.056 33.7322 198.052 33.6195C198.048 33.5026 198.044 33.3835 198.04 33.2622C198.035 33.1409 198.033 33.0283 198.033 32.9243V30.3058H198.563V34.945Z" fill="#707070"/>
<path d="M202.341 33.704C202.341 33.9812 202.276 34.2173 202.145 34.4122C202.015 34.6028 201.828 34.7501 201.584 34.8541C201.344 34.958 201.06 35.01 200.732 35.01C200.564 35.01 200.402 35.0013 200.246 34.984C200.095 34.9667 199.956 34.9429 199.83 34.9125C199.704 34.8779 199.592 34.8367 199.495 34.7891V34.2303C199.647 34.2996 199.834 34.3624 200.057 34.4187C200.284 34.475 200.518 34.5032 200.757 34.5032C200.98 34.5032 201.167 34.4729 201.319 34.4122C201.47 34.3516 201.584 34.265 201.66 34.1523C201.735 34.0397 201.773 33.9076 201.773 33.756C201.773 33.6044 201.742 33.4766 201.678 33.3726C201.615 33.2687 201.506 33.1734 201.35 33.0868C201.199 32.9958 200.987 32.9005 200.713 32.8009C200.52 32.7272 200.349 32.6493 200.202 32.567C200.059 32.4803 199.939 32.3829 199.842 32.2746C199.746 32.1663 199.672 32.0428 199.622 31.9042C199.575 31.7656 199.552 31.6053 199.552 31.4234C199.552 31.1765 199.613 30.9664 199.735 30.7932C199.857 30.6156 200.025 30.4791 200.24 30.3838C200.459 30.2885 200.709 30.2409 200.991 30.2409C201.239 30.2409 201.466 30.2647 201.672 30.3123C201.878 30.36 202.065 30.4228 202.234 30.5008L202.057 31.0011C201.901 30.9318 201.731 30.8733 201.546 30.8256C201.365 30.778 201.176 30.7542 200.978 30.7542C200.789 30.7542 200.631 30.7823 200.505 30.8386C200.379 30.8949 200.284 30.9751 200.221 31.079C200.158 31.1787 200.126 31.2956 200.126 31.4299C200.126 31.5858 200.158 31.7158 200.221 31.8198C200.284 31.9237 200.387 32.0168 200.53 32.0991C200.673 32.1814 200.867 32.2702 201.111 32.3655C201.376 32.4652 201.599 32.5735 201.779 32.6904C201.964 32.803 202.103 32.9395 202.196 33.0997C202.293 33.26 202.341 33.4614 202.341 33.704Z" fill="#707070"/>
<path d="M206.674 33.3077C206.674 33.6282 206.611 33.9184 206.485 34.1783C206.359 34.4339 206.165 34.6375 205.905 34.7891C205.648 34.9364 205.32 35.01 204.92 35.01C204.361 35.01 203.934 34.8541 203.64 34.5422C203.349 34.226 203.204 33.8101 203.204 33.2947V30.3058H203.772V33.3142C203.772 33.691 203.869 33.9834 204.062 34.1913C204.26 34.3992 204.556 34.5032 204.952 34.5032C205.225 34.5032 205.446 34.4534 205.614 34.3538C205.787 34.2498 205.913 34.109 205.993 33.9314C206.073 33.7495 206.113 33.5416 206.113 33.3077V30.3058H206.674V33.3077Z" fill="#707070"/>
<path d="M207.863 34.945V30.3058H208.431V34.4252H210.399V34.945H207.863Z" fill="#707070"/>
<path d="M212.474 34.945H211.907V30.8191H210.5V30.3058H213.875V30.8191H212.474V34.945Z" fill="#707070"/>
<path d="M215.823 34.945H214.195V34.6072L214.725 34.4837V30.7737L214.195 30.6437V30.3058H215.823V30.6437L215.293 30.7737V34.4837L215.823 34.6072V34.945Z" fill="#707070"/>
<path d="M220.263 34.945H219.601L217.191 31.092H217.166C217.17 31.17 217.174 31.2566 217.178 31.3519C217.187 31.4472 217.193 31.5512 217.197 31.6638C217.201 31.7721 217.205 31.8847 217.21 32.0017C217.214 32.1186 217.216 32.2356 217.216 32.3525V34.945H216.692V30.3058H217.349L219.752 34.1458H219.778C219.773 34.0939 219.769 34.0224 219.765 33.9314C219.761 33.8361 219.757 33.7322 219.752 33.6195C219.748 33.5026 219.744 33.3835 219.74 33.2622C219.735 33.1409 219.733 33.0283 219.733 32.9243V30.3058H220.263V34.945Z" fill="#707070"/>
<path d="M223.442 32.4955H225V34.7696C224.756 34.8519 224.51 34.9125 224.262 34.9515C224.014 34.9905 223.732 35.01 223.416 35.01C222.95 35.01 222.556 34.9147 222.237 34.7241C221.917 34.5292 221.673 34.2541 221.505 33.8989C221.341 33.5394 221.259 33.1149 221.259 32.6254C221.259 32.1403 221.351 31.7201 221.536 31.3649C221.721 31.0097 221.986 30.7347 222.331 30.5398C222.68 30.3405 223.101 30.2409 223.593 30.2409C223.845 30.2409 224.083 30.2647 224.306 30.3123C224.533 30.36 224.743 30.4271 224.937 30.5138L224.722 31.0206C224.563 30.9469 224.382 30.8841 224.18 30.8321C223.982 30.7802 223.776 30.7542 223.562 30.7542C223.204 30.7542 222.897 30.83 222.64 30.9816C222.384 31.1332 222.188 31.3498 222.054 31.6313C221.919 31.9085 221.852 32.2399 221.852 32.6254C221.852 32.9936 221.909 33.3207 222.022 33.6065C222.14 33.8881 222.323 34.109 222.571 34.2693C222.819 34.4252 223.145 34.5032 223.549 34.5032C223.684 34.5032 223.801 34.4989 223.902 34.4902C224.007 34.4772 224.102 34.462 224.186 34.4447C224.275 34.4274 224.357 34.4101 224.432 34.3927V33.0153H223.442V32.4955Z" fill="#707070"/>
</g>
<g id="Group 39865">
<path id="Subtract" d="M4.75155 6.01572C5.74685 5.59207 6.03868 6.18723 6.03868 7.05449C6.04151 7.0645 6.04435 7.07415 6.04722 7.08345L5.65257 17.3923C5.60695 18.5839 6.20498 19.7082 7.2186 20.3363C8.23319 20.9651 9.5075 20.9998 10.5548 20.4271L22.2304 14.0428C23.3881 13.4097 24.6337 14.7241 23.9393 15.8462L14.4916 31.1123C12.8499 33.622 11.86 33.7515 10.9528 33.3418L0.64257 27.3911C0.244954 27.1616 0 26.7374 0 26.2783V9.49061C0 9.03177 0.244693 8.60775 0.641971 8.37817L4.71409 6.02498C4.71923 6.02715 4.73143 6.02429 4.75155 6.01572Z" fill="#1862AE"/>
<path id="Subtract_2" d="M18.3591 34.7144L31.0297 27.3833C31.4266 27.1537 31.6711 26.7298 31.6711 26.2712V14.3388C31.6497 12.5429 31.4184 11.1914 29.9238 13.5126L17.859 33.0074C17.8591 33.0076 17.8591 33.0079 17.8592 33.0081C16.8524 34.6764 16.2578 35.8296 18.3591 34.7144Z" fill="#1862AE"/>
<path id="Subtract_3" d="M26.41 5.69745L17.136 0.344159C16.341 -0.11472 15.3617 -0.114719 14.5667 0.344159L11.0702 2.36247C10.5006 2.76854 10.1767 3.20078 10.0343 3.89587L9.27658 15.0433C9.20685 16.0692 10.3105 16.7572 11.201 16.243L26.6613 7.31484C26.6638 7.31162 26.6664 7.30839 26.669 7.30515C27.6552 6.76553 27.3661 6.32143 26.4334 5.71488C26.423 5.70814 26.4153 5.70235 26.41 5.69745Z" fill="#1862AE"/>
</g>
</g>
</svg>
