<svg width="60" height="60" viewBox="0 0 60 60" fill="none" xmlns="http://www.w3.org/2000/svg">
<g id="Shopping, Ecommerce/World, Globe, Basket">
<g id="Group">
<g id="Path">
<path fill-rule="evenodd" clip-rule="evenodd" d="M55 35H51.855L49.34 47.5775H36.7625L35 38.7725H51.1" fill="url(#paint0_linear_264_682)"/>
<path d="M55 35H51.855L49.34 47.5775H36.7625L35 38.7725H51.1" stroke="url(#paint1_linear_264_682)" stroke-width="2.5" stroke-linecap="round" stroke-linejoin="round"/>
</g>
<g id="Group_2">
<path id="Union" fill-rule="evenodd" clip-rule="evenodd" d="M21.8459 7.01015C15.7221 8.69588 10.706 13.053 8.12897 18.7499H17.2007C18.1043 14.6468 19.6527 10.6724 21.8459 7.01015ZM5.06336 19.691C5.08203 19.6175 5.1072 19.5467 5.13822 19.4791C8.42743 10.3086 17.197 3.74988 27.5 3.74988C40.6179 3.74988 51.25 14.382 51.25 27.4999C51.25 28.1902 50.6904 28.7499 50 28.7499C49.3096 28.7499 48.75 28.1902 48.75 27.4999C48.75 25.3109 48.4191 23.1994 47.8047 21.2125C47.7071 21.2369 47.605 21.2499 47.4999 21.2499H38.2685C38.5894 23.3186 38.7497 25.4097 38.7497 27.5C38.7497 28.1903 38.1901 28.75 37.4997 28.75C36.8094 28.75 36.2497 28.1903 36.2497 27.5C36.2497 25.4072 36.0786 23.3151 35.7366 21.2499H19.2641C18.5801 25.3817 18.5799 29.6181 19.2636 33.7499H27.4999C28.1903 33.7499 28.7499 34.3095 28.7499 34.9999C28.7499 35.6902 28.1903 36.2499 27.4999 36.2499H19.7642C20.625 39.9047 22.0343 43.4415 23.9921 46.7102C24.8098 48.0748 26.1404 48.7391 27.4671 48.7499L27.5 48.7499C28.1904 48.7499 28.75 49.3095 28.75 49.9999C28.75 50.5298 28.4202 50.9828 27.9547 51.1646C27.8137 51.2197 27.6602 51.25 27.4997 51.25L27.456 51.2498C17.1721 51.2312 8.42275 44.6781 5.13822 35.5207C5.1072 35.4531 5.08203 35.3822 5.06336 35.3088C4.21242 32.8632 3.75 30.2356 3.75 27.4999C3.75 24.7642 4.21242 22.1366 5.06336 19.691ZM8.12897 36.2499C10.7057 41.9462 15.7211 46.303 21.8439 47.9891C19.6513 44.3269 18.1034 40.3527 17.2001 36.2499H8.12897ZM16.7317 33.7499H7.18378C6.57672 31.7739 6.25 29.6751 6.25 27.4999C6.25 25.3247 6.57672 23.2259 7.18378 21.2499H16.7321C16.0907 25.3862 16.0905 29.6135 16.7317 33.7499ZM33.1564 7.01079C39.2791 8.69699 44.2943 13.0537 46.871 18.7499H37.7999C36.8967 14.6487 35.3492 10.6742 33.1564 7.01079ZM31.0101 8.29266C32.9652 11.5585 34.3746 15.0942 35.2359 18.7499H19.7648C20.6257 15.0961 22.0347 11.5602 23.9921 8.29229L23.9922 8.2921C24.194 7.95504 24.4284 7.65971 24.6874 7.40611L31.0101 8.29266ZM24.6876 7.40596L24.6874 7.40611L21.8518 7.00851L24.6876 7.40596ZM31.0097 8.29206C29.5794 5.90674 26.5195 5.61226 24.6876 7.40596L31.0097 8.29206ZM39.0135 52.9191C38.4654 52.3421 37.5854 52.3704 37.0586 52.8836C36.4924 53.4321 36.5232 54.3044 37.0328 54.8281C37.6122 55.4272 38.4818 55.3259 38.9682 54.8638C39.578 54.2844 39.4781 53.4081 39.0135 52.9191ZM47.1211 52.8836C47.6479 52.3704 48.5279 52.3421 49.076 52.9191C49.5406 53.4081 49.6405 54.2844 49.0307 54.8638C48.5443 55.3259 47.6747 55.4272 47.0953 54.8281C46.5857 54.3044 46.5549 53.4321 47.1211 52.8836Z" fill="url(#paint2_linear_264_682)"/>
</g>
</g>
</g>
<defs>
<linearGradient id="paint0_linear_264_682" x1="38.6" y1="34.9161" x2="43.4552" y2="49.5849" gradientUnits="userSpaceOnUse">
<stop stop-color="#3792FF"/>
<stop offset="1" stop-color="#0041C8"/>
</linearGradient>
<linearGradient id="paint1_linear_264_682" x1="38.6" y1="34.9161" x2="43.4552" y2="49.5849" gradientUnits="userSpaceOnUse">
<stop stop-color="#3792FF"/>
<stop offset="1" stop-color="#0041C8"/>
</linearGradient>
<linearGradient id="paint2_linear_264_682" x1="12.3" y1="3.40658" x2="40.9827" y2="53.6765" gradientUnits="userSpaceOnUse">
<stop stop-color="#3792FF"/>
<stop offset="1" stop-color="#0041C8"/>
</linearGradient>
</defs>
</svg>
