<svg width="30" height="30" viewBox="0 0 30 30" fill="none" xmlns="http://www.w3.org/2000/svg">
<g id="Group">
<path id="Path" fill-rule="evenodd" clip-rule="evenodd" d="M13.57 16.43C12.1075 14.9675 11.005 13.33 10.2725 11.6687C10.1175 11.3175 10.2087 10.9062 10.48 10.635L11.5037 9.61246C12.3425 8.77371 12.3425 7.58746 11.61 6.85496L10.1425 5.38746C9.16625 4.41121 7.58375 4.41121 6.6075 5.38746L5.7925 6.20246C4.86625 7.12871 4.48 8.46496 4.73 9.78996C5.3475 13.0562 7.245 16.6325 10.3062 19.6937C13.3675 22.755 16.9437 24.6525 20.21 25.27C21.535 25.52 22.8712 25.1337 23.7975 24.2075L24.6112 23.3937C25.5875 22.4175 25.5875 20.835 24.6112 19.8587L23.145 18.3925C22.4125 17.66 21.225 17.66 20.4937 18.3925L19.365 19.5225C19.0937 19.7937 18.6825 19.885 18.3312 19.73C16.67 18.9962 15.0325 17.8925 13.57 16.43Z" stroke="white" stroke-width="2" stroke-linecap="round" stroke-linejoin="round"/>
</g>
</svg>
