<svg width="68" height="68" viewBox="0 0 68 68" fill="none" xmlns="http://www.w3.org/2000/svg">
<path d="M8.50006 59.5H59.5001M11.3334 59.5L11.3337 31.0404M56.8747 59.5L56.875 30.9996M39.6667 59.5V30.9996M39.6667 45.3333H11.3334M61.5522 21.1867C62.3883 22.7615 62.5545 24.6068 62.0132 26.3056C61.0769 29.2528 58.3111 31.2311 55.2195 31.165C52.1278 31.0989 49.4491 29.0042 48.6396 26.0197C48.5883 25.8463 48.429 25.7274 48.2483 25.7274C48.0675 25.7274 47.9082 25.8463 47.8569 26.0197C47.0302 29.0574 44.2718 31.1653 41.1236 31.1649C37.9754 31.1646 35.2174 29.0561 34.3913 26.0182C34.3401 25.8448 34.1809 25.7258 34 25.7258C33.8192 25.7258 33.66 25.8448 33.6087 26.0182C32.7824 29.0561 30.024 31.1643 26.8757 31.1642C23.7274 31.1641 20.9691 29.0557 20.143 26.0177C20.0916 25.8444 19.9324 25.7255 19.7516 25.7255C19.5708 25.7255 19.4116 25.8444 19.3602 26.0177C18.5506 29.002 15.8722 31.0964 12.7808 31.1626C9.6894 31.2288 6.92373 29.251 5.98712 26.3041C5.44556 24.605 5.61176 22.7593 6.44816 21.1843L11.2839 11.6116C12.2479 9.70331 14.2038 8.5 16.3418 8.5H51.6574C53.7954 8.50001 55.7513 9.70332 56.7153 11.6116L61.5522 21.1867Z" stroke="#1862AE" stroke-width="2" stroke-linecap="round" stroke-linejoin="round"/>
</svg>
