<svg width="60" height="60" viewBox="0 0 60 60" fill="none" xmlns="http://www.w3.org/2000/svg">
<g id="Shopping, Ecommerce/shopping-list-receipt-3">
<g id="Group">
<path id="Union" fill-rule="evenodd" clip-rule="evenodd" d="M26.8616 9.16657L26.8617 9.1665L26.8618 9.16643C27.2453 8.94437 27.7182 8.94418 28.1019 9.16596L28.1049 9.16767L31.867 11.3286C32.0564 11.4374 32.2711 11.4946 32.4896 11.4946H32.5104C32.7288 11.4946 32.9435 11.4374 33.1329 11.3286L36.895 9.16795L36.2735 8.08582L36.895 9.16795C37.2821 8.94566 37.7583 8.94661 38.1445 9.17045L38.1445 9.17049L41.8627 11.3255C42.0532 11.4359 42.2694 11.494 42.4895 11.494H42.5104C42.7289 11.494 42.9435 11.4367 43.133 11.3279L46.895 9.16705C47.2821 8.94476 47.7583 8.94571 48.1445 9.16955L48.1445 9.16958L50.6268 10.6083L51.2532 9.52743L50.6268 10.6083C51.0125 10.8318 51.2499 11.2439 51.25 11.6896V11.6897V48.75C51.25 50.1307 50.1307 51.25 48.75 51.25C47.3693 51.25 46.25 50.1307 46.25 48.75V45C46.25 42.929 44.5711 41.25 42.5 41.25H13.75V11.6905V11.6905C13.75 11.2447 13.9874 10.8326 14.3732 10.609L14.3732 10.609L16.8554 9.17031L16.8555 9.17027C17.2416 8.94644 17.7178 8.94548 18.1049 9.16775L18.1049 9.16777L21.867 11.3286C21.9127 11.3549 21.9601 11.3782 22.0088 11.3985L22.0208 11.4035C22.3837 11.5548 22.7966 11.5264 23.1355 11.327C23.1353 11.3271 23.1353 11.3271 23.1356 11.327L23.1369 11.3262L23.1431 11.3226L23.1667 11.3089L23.2491 11.261L23.5361 11.0945L24.4758 10.5496L26.8616 9.16657ZM10 41.25H11.25V11.6906V11.6905C11.25 10.353 11.9623 9.11676 13.1195 8.44605L13.1195 8.44604L15.6018 7.00738L15.6018 7.00734C16.7603 6.33586 18.1889 6.33301 19.35 6.99988L19.35 6.9999L22.4967 8.80728C23.2768 8.35486 24.6222 7.57499 25.6081 7.00352L25.6083 7.00338C26.7658 6.33282 28.1932 6.33184 29.3515 7.00069L29.353 7.00154L32.5 8.80912L35.65 7.00005C36.8111 6.33318 38.2397 6.33603 39.3982 7.00755L42.5027 8.80687L45.6499 6.99918L45.65 6.99915C46.8111 6.33229 48.2397 6.33513 49.3981 7.00662L49.3982 7.00665L51.8804 8.44535C53.0375 9.11598 53.7499 10.3521 53.75 11.6896V11.6896V48.75C53.75 51.5114 51.5114 53.75 48.75 53.75H12.5C10.8155 53.75 9.28659 53.0836 8.16263 52H8V51.8374C6.91642 50.7134 6.25 49.1845 6.25 47.5V45C6.25 42.929 7.92893 41.25 10 41.25ZM21.25 22.5C21.25 21.8096 21.8096 21.25 22.5 21.25H25C25.6904 21.25 26.25 21.8096 26.25 22.5C26.25 23.1904 25.6904 23.75 25 23.75H22.5C21.8096 23.75 21.25 23.1904 21.25 22.5ZM22.5 30C21.8096 30 21.25 30.5596 21.25 31.25C21.25 31.9404 21.8096 32.5 22.5 32.5H25C25.6904 32.5 26.25 31.9404 26.25 31.25C26.25 30.5596 25.6904 30 25 30H22.5ZM32.5 30C31.8096 30 31.25 30.5596 31.25 31.25C31.25 31.9404 31.8096 32.5 32.5 32.5H42.5C43.1904 32.5 43.75 31.9404 43.75 31.25C43.75 30.5596 43.1904 30 42.5 30H32.5ZM32.5 21.25C31.8096 21.25 31.25 21.8096 31.25 22.5C31.25 23.1904 31.8096 23.75 32.5 23.75H42.5C43.1904 23.75 43.75 23.1904 43.75 22.5C43.75 21.8096 43.1904 21.25 42.5 21.25H32.5Z" fill="url(#paint0_linear_264_694)"/>
</g>
</g>
<defs>
<linearGradient id="paint0_linear_264_694" x1="14.8" y1="6.18475" x2="39.9248" y2="54.1742" gradientUnits="userSpaceOnUse">
<stop stop-color="#3792FF"/>
<stop offset="1" stop-color="#0041C8"/>
</linearGradient>
</defs>
</svg>
