<svg width="60" height="60" viewBox="0 0 60 60" fill="none" xmlns="http://www.w3.org/2000/svg">
<g id="Shopping, Ecommerce/Shop, Basket">
<g id="Group">
<g id="Group_2">
<path id="Union" fill-rule="evenodd" clip-rule="evenodd" d="M14.6656 6.08887C12.9268 6.08887 11.3846 7.03114 10.6662 8.44964L10.6654 8.4511L6.51389 16.6211L6.5138 16.6213C5.20488 19.1985 7.11941 22.3805 10.4094 22.4066C13.3534 22.4047 15.3639 20.4316 15.3656 18.4225V18.3074C15.3656 17.6171 15.9252 17.0574 16.6156 17.0574C17.3059 17.0574 17.8656 17.6171 17.8656 18.3074C17.8656 20.4029 19.9046 22.4066 22.8236 22.4066C25.7427 22.4066 27.7817 20.4029 27.7817 18.3074C27.7817 17.6171 28.3413 17.0574 29.0317 17.0574C29.722 17.0574 30.2817 17.6171 30.2817 18.3074C30.2817 20.4023 32.32 22.4066 35.2446 22.4066C38.1636 22.4066 40.2026 20.4029 40.2026 18.3074C40.2026 17.6171 40.7623 17.0574 41.4526 17.0574C42.143 17.0574 42.7026 17.6171 42.7026 18.3074V18.4235C42.7026 20.4315 44.712 22.4047 47.6564 22.4066C50.9464 22.3805 52.861 19.1984 51.5519 16.6211L47.4004 8.4511L47.4002 8.45079C46.6793 7.03102 45.1363 6.08887 43.3978 6.08887H14.6656ZM41.4316 22.0059C40.0603 23.7911 37.7358 24.9066 35.2446 24.9066C32.7377 24.9066 30.4009 23.7797 29.0318 21.9783C27.6632 23.7795 25.3277 24.9066 22.8236 24.9066C20.3318 24.9066 18.0069 23.7906 16.6356 22.0047C15.3605 23.6701 13.2332 24.7482 10.9267 24.8905V49.5566H12.0962C12.7866 49.5566 13.3462 50.1162 13.3462 50.8066C13.3462 51.497 12.7866 52.0566 12.0962 52.0566H4.83816C4.1478 52.0566 3.58816 51.497 3.58816 50.8066C3.58816 50.1162 4.1478 49.5566 4.83816 49.5566H8.42674V24.6177C4.62119 23.4955 2.34867 19.301 4.28495 15.4889L4.28504 15.4887L8.43591 7.32003L8.43625 7.31936C9.60502 5.01244 12.0401 3.58887 14.6656 3.58887H43.3978C46.0237 3.58887 48.4581 5.01272 49.6291 7.31857L49.6293 7.31888L53.7807 15.4887L53.7808 15.4889C55.7175 19.3017 53.4437 23.4973 49.6367 24.6184V49.5566H53.2251C53.9155 49.5566 54.4751 50.1162 54.4751 50.8066C54.4751 51.497 53.9155 52.0566 53.2251 52.0566H45.9671C45.2767 52.0566 44.7171 51.497 44.7171 50.8066C44.7171 50.1162 45.2767 49.5566 45.9671 49.5566H47.1367V24.8904C44.832 24.7475 42.706 23.6702 41.4316 22.0059ZM34.8089 39.9194H23.254L25.3628 34.311C25.6057 33.6648 25.2789 32.944 24.6327 32.7011C23.9865 32.4581 23.2657 32.785 23.0227 33.4312L20.7485 39.4796C20.6939 39.6248 20.6681 39.7738 20.6682 39.9203C19.1612 39.9612 18.0501 41.3665 18.372 42.8517L20.2058 51.3194C20.4453 52.4323 21.43 53.2259 22.5695 53.2259H35.4937C36.6308 53.2259 37.6155 52.4323 37.8574 51.3194L39.6913 42.8517C40.0132 41.3664 38.9042 39.9609 37.3947 39.9203C37.3949 39.7738 37.369 39.6248 37.3144 39.4796L35.0402 33.4312C34.7973 32.785 34.0765 32.4581 33.4303 32.7011C32.7841 32.944 32.4572 33.6648 32.7002 34.311L34.8089 39.9194Z" fill="url(#paint0_linear_264_667)"/>
<path id="Path" d="M26.2253 45.7259V47.1775" stroke="white" stroke-width="2.5" stroke-linecap="round" stroke-linejoin="round"/>
<path id="Path_2" d="M31.8386 45.7259V47.1775" stroke="white" stroke-width="2.5" stroke-linecap="round" stroke-linejoin="round"/>
</g>
</g>
</g>
<defs>
<linearGradient id="paint0_linear_264_667" x1="12.7431" y1="3.25795" x2="38.835" y2="54.0996" gradientUnits="userSpaceOnUse">
<stop stop-color="#3792FF"/>
<stop offset="1" stop-color="#0041C8"/>
</linearGradient>
</defs>
</svg>
