<svg width="60" height="60" viewBox="0 0 60 60" fill="none" xmlns="http://www.w3.org/2000/svg">
<path fill-rule="evenodd" clip-rule="evenodd" d="M20 15C20 9.47715 24.4772 5 30 5C35.5228 5 40 9.47715 40 15V16.25H45C48.4518 16.25 51.25 19.0482 51.25 22.5V27.5C51.25 28.1904 50.6904 28.75 50 28.75C49.3096 28.75 48.75 28.1904 48.75 27.5V22.5C48.75 20.4289 47.0711 18.75 45 18.75H38.75H21.25H15C12.9289 18.75 11.25 20.4289 11.25 22.5V47.5C11.25 49.5711 12.9289 51.25 15 51.25H30C30.6904 51.25 31.25 51.8096 31.25 52.5C31.25 53.1904 30.6904 53.75 30 53.75H15C11.5482 53.75 8.75 50.9518 8.75 47.5V22.5C8.75 19.0482 11.5482 16.25 15 16.25H20V15ZM37.5 15V16.25H22.5V15C22.5 10.8579 25.8579 7.5 30 7.5C34.1421 7.5 37.5 10.8579 37.5 15ZM42.1339 29.6339L40.8839 30.8839C40.3957 31.372 39.6043 31.372 39.1161 30.8839C38.628 30.3957 38.628 29.6043 39.1161 29.1161L40.3661 27.8661C40.8543 27.378 41.6457 27.378 42.1339 27.8661C42.622 28.3543 42.622 29.1457 42.1339 29.6339ZM29.1161 30.8839C28.628 30.3957 28.628 29.6043 29.1161 29.1161C29.6043 28.628 30.3957 28.628 30.8839 29.1161L32.1339 30.3661C32.622 30.8543 32.622 31.6457 32.1339 32.1339C31.6457 32.622 30.8543 32.622 30.3661 32.1339L29.1161 30.8839ZM30.8839 40.8839C31.372 40.3957 31.372 39.6043 30.8839 39.1161C30.3957 38.628 29.6043 38.628 29.1161 39.1161L27.8661 40.3661C27.378 40.8543 27.378 41.6457 27.8661 42.1339C28.3543 42.622 29.1457 42.622 29.6339 42.1339L30.8839 40.8839ZM50.9687 44.3668L47.2663 45.9227C46.6636 46.176 46.1841 46.6553 45.9305 47.258L44.3692 50.9692C43.9591 51.9437 42.9805 52.5549 41.925 52.4957C40.8695 52.4366 39.9653 51.72 39.6666 50.7059L36.3552 39.4592C36.0968 38.5814 36.3386 37.6326 36.9856 36.9856C37.6326 36.3385 38.5813 36.0966 39.4591 36.3549L50.7057 39.6639C51.7201 39.9624 52.4369 40.8668 52.4959 41.9226C52.555 42.9783 51.9434 43.957 50.9687 44.3668Z" fill="url(#paint0_linear_264_703)"/>
<defs>
<linearGradient id="paint0_linear_264_703" x1="16.625" y1="4.675" x2="44.1535" y2="51.6146" gradientUnits="userSpaceOnUse">
<stop stop-color="#3792FF"/>
<stop offset="1" stop-color="#0041C8"/>
</linearGradient>
</defs>
</svg>
