<svg width="68" height="68" viewBox="0 0 68 68" fill="none" xmlns="http://www.w3.org/2000/svg">
<path d="M46.7217 36.4367V26.622L21.25 11.917M25.6133 48.1666L17 43.1799M34 34V62.56M34 34L9.25934 19.7173M34 34L58.7407 19.7173M8.5 45.4495V22.5505C8.5 20.5247 9.5795 18.6547 11.3333 17.6432L31.1667 6.19368C32.9205 5.18218 35.0795 5.18218 36.8333 6.19368L56.6667 17.6432C58.4205 18.6547 59.5 20.5275 59.5 22.5505V45.4524C59.5 47.4782 58.4205 49.3482 56.6667 50.3597L36.8333 61.8092C35.0795 62.8207 32.9205 62.8207 31.1667 61.8092L11.3333 50.3597C9.5795 49.3454 8.5 47.4754 8.5 45.4495Z" stroke="#1862AE" stroke-width="2" stroke-linecap="round" stroke-linejoin="round"/>
</svg>
