<svg width="40" height="40" viewBox="0 0 40 40" fill="none" xmlns="http://www.w3.org/2000/svg">
<path fill-rule="evenodd" clip-rule="evenodd" d="M10 30.9734C12.615 28.4317 16.1533 26.8684 20.0383 26.8684C23.885 26.8684 27.385 28.4001 30 30.8951C27.385 33.4367 23.8467 35.0001 19.9617 35.0001C16.115 35.0001 12.615 33.4684 10 30.9734Z" stroke="white" stroke-width="2" stroke-linecap="round" stroke-linejoin="round"/>
<path d="M6.625 26.7083C5.60833 24.685 5 22.42 5 20C5 11.71 11.71 5 20 5C28.29 5 35 11.71 35 20C35 22.4167 34.395 24.6833 33.3717 26.705" stroke="white" stroke-width="2" stroke-linecap="round" stroke-linejoin="round"/>
<path d="M23.5355 13.1312C25.4881 15.0838 25.4881 18.2497 23.5355 20.2023C21.5829 22.1549 18.4171 22.1549 16.4645 20.2023C14.5118 18.2497 14.5118 15.0838 16.4645 13.1312C18.4171 11.1786 21.5829 11.1786 23.5355 13.1312" stroke="white" stroke-width="2" stroke-linecap="round" stroke-linejoin="round"/>
</svg>
