<svg width="68" height="68" viewBox="0 0 68 68" fill="none" xmlns="http://www.w3.org/2000/svg">
<path d="M51.5581 45.1407V45.1407L57.1568 50.7393C58.3921 51.9747 58.3921 53.9807 57.1568 55.216L53.7964 58.5763C52.5611 59.8117 50.5551 59.8117 49.3198 58.5763L43.7211 52.9777L39.5023 57.1965C38.6693 58.0295 37.2526 57.6952 36.8814 56.5788L28.7441 32.164C28.3304 30.9258 29.5091 29.75 30.7473 30.1608L55.1621 38.2982C56.2784 38.6693 56.6128 40.086 55.7798 40.919L51.5581 45.1407" stroke="#1862AE" stroke-width="2" stroke-linecap="round" stroke-linejoin="round"/>
<path d="M13.5434 30.9683H7.08337" stroke="#1862AE" stroke-width="2" stroke-linecap="round" stroke-linejoin="round"/>
<path d="M18.2466 19.6634L13.6566 15.0734" stroke="#1862AE" stroke-width="2" stroke-linecap="round" stroke-linejoin="round"/>
<path d="M18.1333 42.3867L13.5433 46.9767" stroke="#1862AE" stroke-width="2" stroke-linecap="round" stroke-linejoin="round"/>
<path d="M29.5517 14.96V8.5" stroke="#1862AE" stroke-width="2" stroke-linecap="round" stroke-linejoin="round"/>
<path d="M40.97 19.55L45.56 14.96" stroke="#1862AE" stroke-width="2" stroke-linecap="round" stroke-linejoin="round"/>
</svg>
