<svg width="60" height="60" viewBox="0 0 60 60" fill="none" xmlns="http://www.w3.org/2000/svg">
<g id="Shopping, Ecommerce/browser-calculator-shop">
<g id="Group">
<path id="Union" fill-rule="evenodd" clip-rule="evenodd" d="M12.4923 8.74072C10.4201 8.74072 8.74023 10.4206 8.74023 12.4928V16.2449H46.2569V12.4928C46.2569 10.4206 44.577 8.74072 42.5048 8.74072H12.4923ZM6.24023 12.4928V17.4949V42.5053C6.24023 45.9582 9.03939 48.7574 12.4923 48.7574H24.9975C25.6879 48.7574 26.2475 48.1977 26.2475 47.5074C26.2475 46.817 25.6879 46.2574 24.9975 46.2574H12.4923C10.4201 46.2574 8.74023 44.5775 8.74023 42.5053V18.7449H46.2569V19.9959C46.2569 20.6863 46.8165 21.2459 47.5069 21.2459C48.1973 21.2459 48.7569 20.6863 48.7569 19.9959V17.4949V12.4928C48.7569 9.03988 45.9577 6.24072 42.5048 6.24072H12.4923C9.03939 6.24072 6.24023 9.03988 6.24023 12.4928ZM14.9937 26.2491C14.3033 26.2491 13.7437 26.8087 13.7437 27.4991C13.7437 28.1894 14.3033 28.7491 14.9937 28.7491H22.4968C23.1871 28.7491 23.7468 28.1894 23.7468 27.4991C23.7468 26.8087 23.1871 26.2491 22.4968 26.2491H14.9937ZM13.7437 35.0022C13.7437 34.3119 14.3033 33.7522 14.9937 33.7522H17.4947C18.1851 33.7522 18.7447 34.3119 18.7447 35.0022C18.7447 35.6926 18.1851 36.2522 17.4947 36.2522H14.9937C14.3033 36.2522 13.7437 35.6926 13.7437 35.0022ZM52.5093 50.0084V30.0001C52.5093 28.6188 51.3896 27.499 50.0083 27.499H35.002C33.6207 27.499 32.501 28.6188 32.501 30.0001V50.0084C32.501 51.3897 33.6207 52.5094 35.002 52.5094H50.0083C51.3896 52.5094 52.5093 51.3897 52.5093 50.0084Z" fill="url(#paint0_linear_264_715)"/>
<path id="Path" d="M48 33.5H37" stroke="white" stroke-width="2.5" stroke-linecap="round" stroke-linejoin="round"/>
<path id="Path_2" d="M39.5035 40.6296C39.5034 40.6986 39.4474 40.7545 39.3784 40.7545C39.3094 40.7545 39.2534 40.6985 39.2534 40.6295C39.2534 40.5605 39.3093 40.5045 39.3783 40.5044C39.4115 40.5043 39.4434 40.5175 39.4669 40.541C39.4904 40.5645 39.5035 40.5964 39.5035 40.6296" stroke="white" stroke-width="2.5" stroke-linecap="round" stroke-linejoin="round"/>
<path id="Path_3" d="M45.7564 40.6296C45.7563 40.6986 45.7004 40.7545 45.6313 40.7545C45.5623 40.7545 45.5064 40.6985 45.5063 40.6295C45.5063 40.5605 45.5622 40.5045 45.6312 40.5044C45.6644 40.5043 45.6963 40.5175 45.7198 40.541C45.7433 40.5645 45.7565 40.5964 45.7564 40.6296" stroke="white" stroke-width="2.5" stroke-linecap="round" stroke-linejoin="round"/>
<path id="Path_4" d="M45.7564 46.8823C45.7563 46.9513 45.7004 47.0072 45.6313 47.0072C45.5623 47.0071 45.5064 46.9512 45.5063 46.8822C45.5063 46.8131 45.5622 46.7571 45.6312 46.7571C45.6644 46.757 45.6963 46.7702 45.7198 46.7937C45.7433 46.8172 45.7565 46.849 45.7564 46.8823" stroke="white" stroke-width="2.5" stroke-linecap="round" stroke-linejoin="round"/>
<path id="Path_5" d="M39.5035 46.8823C39.5034 46.9513 39.4474 47.0072 39.3784 47.0072C39.3094 47.0071 39.2534 46.9512 39.2534 46.8822C39.2534 46.8131 39.3093 46.7571 39.3783 46.7571C39.4115 46.757 39.4434 46.7702 39.4669 46.7937C39.4904 46.8172 39.5035 46.849 39.5035 46.8823" stroke="white" stroke-width="2.5" stroke-linecap="round" stroke-linejoin="round"/>
</g>
</g>
<defs>
<linearGradient id="paint0_linear_264_715" x1="14.5687" y1="5.93226" x2="39.2452" y2="52.8181" gradientUnits="userSpaceOnUse">
<stop stop-color="#3792FF"/>
<stop offset="1" stop-color="#0041C8"/>
</linearGradient>
</defs>
</svg>
