<svg width="176" height="176" fill="none" xmlns="http://www.w3.org/2000/svg"><g filter="url(#a)"><rect x=".06" y=".06" width="175.31" height="175.31" rx="30" fill="url(#b)"/></g><path d="M128.34 65.67c-5.58 0-10.61 1.69-14.9 4.58V43.89h-11.9v48.6a26.71 26.71 0 0 0 26.73 26.7 26.81 26.81 0 0 0 26.87-26.83c0-15-11.89-26.69-26.8-26.69ZM74.37 95.93 63.5 67.56h-8.33L44.21 95.93 33.26 67.56H20.3l19.15 49.88h8.33l11.49-29.7 11.55 29.7h8.33l19.08-49.88h-12.9L74.37 95.93Zm53.9 11.36a14.81 14.81 0 0 1-14.84-14.86c0-8.4 6.38-14.79 14.91-14.79 8.54 0 14.92 6.66 14.92 14.79 0 8.13-6.79 14.86-14.98 14.86Z" fill="#fff"/><defs><linearGradient id="b" x1="164.7" y1="9.05" x2="10.74" y2="162.45" gradientUnits="userSpaceOnUse"><stop stop-color="#FA46D8"/><stop offset="1" stop-color="#7202FA"/></linearGradient><filter id="a" x="-7.94" y="-7.94" width="183.31" height="183.31" filterUnits="userSpaceOnUse" color-interpolation-filters="sRGB"><feFlood flood-opacity="0" result="BackgroundImageFix"/><feBlend in="SourceGraphic" in2="BackgroundImageFix" result="shape"/><feColorMatrix in="SourceAlpha" values="0 0 0 0 0 0 0 0 0 0 0 0 0 0 0 0 0 0 127 0" result="hardAlpha"/><feOffset dx="-8" dy="-8"/><feGaussianBlur stdDeviation="10"/><feComposite in2="hardAlpha" operator="arithmetic" k2="-1" k3="1"/><feColorMatrix values="0 0 0 0 0 0 0 0 0 0 0 0 0 0 0 0 0 0 0.35 0"/><feBlend in2="shape" result="effect1_innerShadow_319_2178"/></filter></defs></svg>