<svg width="146" height="146" fill="none" xmlns="http://www.w3.org/2000/svg"><g filter="url(#a)"><mask id="b" style="mask-type:alpha" maskUnits="userSpaceOnUse" x="0" y="0" width="146" height="146"><rect x=".77" y=".59" width="145.04" height="145.04" rx="30" fill="#fff"/></mask><g mask="url(#b)"><path d="M146.68-.8H.4v146.28h146.28V-.78Z" fill="#005BFF"/><path d="M131.2-26.76c-8.18 15.07-13.65 22.88-29.53 40.69a51.08 51.08 0 0 1-8.45 9.06c-14.51 12.68-29 25.48-43.54 38.1-4.3 3.74-8.83 7.14-13.29 10.68-2.65 2.1-5.83 3.27-8.93 4.33-10.38 3.54-20.69 6.88-31.03 10.5-4.64 1.64-9.21 3.64-13.78 5.53-3.19 1.32-5.66 3.75-8.06 6.24-5.77 6.02-8.87 11.6-13.86 21.21 0-.33-1.36-29.97-1.36-29.97 6.25-8.04 13.82-14.44 21.32-20.34 3.3-2.6 6.87-4.69 10.4-6.92C-2.64 58.42 3 53.47 8.33 48.26c5.07-4.93 9.22-10.71 13.28-16.56A579.06 579.06 0 0 1 41.54 4.33c3.5-4.45 7.57-8.31 11.63-12.15 5.2-4.92 16.2-16.14 16.2-16.14l19.16-.87c-.56.66-1.14 1.66-1.36 2.02-2.3 3.95-4.73 7.78-6.88 11.8-1.36 2.56-2.25 5.5-3.47 8.14-2.43 5.27-5.37 10.13-9.7 13.89a22.96 22.96 0 0 1-4.75 3.15c-3.46 1.72-6.49 4-9.36 6.59-4.34 3.92-8.25 8.3-12.13 12.73a332.66 332.66 0 0 0-17.42 21.65c-.53.72-1.14 1.4-1.62 2.17-.23.38-.3.86-.47 1.28l.14.27c.56-.2 1.2-.33 1.7-.64 1.85-1.13 3.8-2.15 5.53-3.47A767.8 767.8 0 0 0 48.3 39.58c3.3-2.67 6.2-5.86 9.4-8.69 1.98-1.73 4.22-3.13 6.27-4.77 3.38-2.67 6.72-5.29 9.96-8.15a435.2 435.2 0 0 0 14.62-13.4c9.9-9.57 7.95-20.15 17.47-30.2l25.18-1.13ZM162.87 124.53c-1.53 1.57-2.3 2.8-3.93 4.27-1.3 1.18-2.92 2.11-4.31 3.22-5.13 4.06-9.88 9.1-15.56 12.27-4.3 2.4-8.77 4.08-13.59 4.63-.85.1-1.8 0-2.64-.21-1.1-.27-1.53-1.27-1.4-2.45.2-1.82 1.11-3.19 2.22-4.5 1.2-1.44 2.42-3.06 3.9-4.13a34.23 34.23 0 0 0 8.46-9.14c1.68-2.55 3.21-5.13 4.92-7.66 2.07-3.07 4.77-5.5 7.37-8.03 6.19-5.99 12.08-12.45 18.61-17.99 0 .16-3.91 28.64-4.05 29.72Z" fill="#F91155"/><path d="M134.34-26.96s-.54 1.37-1.02 2.33C128.17-13.12 123.58-2.44 117 8.25c-5.66 9.2-11.5 18.2-18.23 26.56-2.35 2.94-4.73 5.94-7.76 8.14-4.74 3.44-9.46 6.77-14.24 10.14-6.77 4.78-13.6 9.52-19.86 15.05a43.27 43.27 0 0 0-6.77 7.23c-1.5 2.1-2.98 4.23-4.73 6.08-7.09 7.6-14.95 14.3-22.88 20.88A2677.86 2677.86 0 0 1-2.1 122.5c-5.13 4.16-10.37 8.15-16 11.54a25.7 25.7 0 0 1-3.6 1.66c-.18.07-11.78 4.7-12.72 5.55l1.1 15.2c.17-.09 3.48-2.75 4.15-3.23 4.74-3.6 7.23-6.26 12.47-8.9 5.96-3 11.93-5.78 17.78-9a716.16 716.16 0 0 0 39.51-23.63 466.82 466.82 0 0 0 17.7-11.8C65.25 94.96 71.31 89 77.22 82.8c7.24-7.6 14.34-15.35 21.39-23.15 4.8-5.33 9.5-10.86 14.19-16.32 3.14-3.65 6.27-7.28 9.28-11.05 5.02-6.35 9.27-13.23 13.65-20.07 2.7-4.22 5.47-8.45 8.52-12.4 7.77-10.07 14.8-19.79 24.38-29.25l-34.3 2.48ZM27.17 6.95a1321.5 1321.5 0 0 0-19.3 20.9C4.39 31.7 1.25 35.87-2.2 39.79c-6.14 7-12.5 13.93-19.75 19.66-7.36 5.8-15.28 11.66-22.78 17.28-.02-.42-.9-20.1-.93-20.54a134.28 134.28 0 0 0 8.74-17.34c1.4-3.46 2.63-7.09 4.03-10.55 2.68-6.65 6.2-12.74 11.38-17.6 2.9-2.7 6.22-4.63 9.63-6.46C-1.62-1.25 8.62-6.83 18.9-12.26 25-15.53 29.64-21.2 35.1-25.47l21.67-.99C46.93-15.25 37.4-3.9 27.17 6.95ZM72.68 166.91c1.68-1.64 3.26-3.13 4.81-4.7 7.24-7.4 15.43-13.46 23.5-19.75a90.6 90.6 0 0 0 5.07-4.28 6.06 6.06 0 0 0 1.34-1.94c.22-.47.4-1.22.14-1.54-.32-.41-1.09-.83-1.57-.71a10.3 10.3 0 0 0-3.45 1.22c-5.82 3.74-11.56 7.58-17.32 11.41-1.96 1.31-3.91 2.82-5.86 4.13a38.8 38.8 0 0 0-9.35 8.84c-1.69 2.22-3.28 3.85-5.1 5.96-.2.26-.8.82-1.2 1.25l-21.68-.24a137.8 137.8 0 0 0 5.93-4.13c10.44-7.81 18.89-12.56 30.04-19.1 9.88-5.81 19.64-11.87 29.42-17.86 3.4-2.08 6.88-4.18 9.47-7.45 1.7-2.13 3.46-4.19 5.1-6.38 5.3-7.06 10.53-14.31 15.85-21.36 3.38-4.5 6.77-8.93 10.85-12.75 2.96-2.76 6.11-5.27 9.09-8 5.88-5.41 4.34-12.58 15.2-29.25 6.06-9.27 10.06-12.36 13.33-15.9 2.1-2.27 8.2-5.74 10.66-7.58l-.08 7.7c-4.49 3.84-11.76 14.54-12.59 20.54-2.96 21.44-22.5 34.4-32.46 47.22-4.66 6.03-9.98 11.26-15.66 16.2-3.72 3.23-7.32 6.6-10.3 10.65-1.2 1.63-2 3.56-3.1 5.28-3.58 5.61-7.24 11.23-10.9 16.8-2.72 4.13-5.43 8.34-8.45 12.22-3.6 4.63-6.36 7.77-10.2 12.2-.18.22-.84 1.03-1.33 1.53l-19.2-.23ZM-39.65 174.98c11.06-7.83 23.78-14.4 35.43-21.37 5.36-3.21 10.86-6.2 16.36-9.13 6.05-3.22 12.1-6.54 18.34-9.3a113.78 113.78 0 0 0 27.83-17.74c2.83-2.4 5.36-5.24 7.92-7.98 5.38-5.77 10.82-11.63 16.07-17.52 5.18-5.81 10.16-11.76 15.28-17.64a47.78 47.78 0 0 1 8.83-8.14c.72-.48 1.56-.74 2.36-1.02.84-.3 1.4.06 1.21.96a18.13 18.13 0 0 1-1.5 4.5c-2.42 4.49-4.9 8.82-7.55 13.17-3.3 5.42-7 10.67-11.09 15.46a70.27 70.27 0 0 1-12.2 11.42 82.97 82.97 0 0 0-8.86 7.44c-4.33 4.22-9.3 7.47-14.21 10.9-10.42 7.31-21.25 14.03-32 20.76-11.23 7.02-19.97 14.37-31.28 24.66l-30.94.57Z" fill="#F91155"/><path d="M168.63 18.01c7.56-3.44 19.78-13.89 25.12-19.2l-2.13-31.69c-2.32 1.91-6 4.54-8.12 6.36a112.83 112.83 0 0 0-7.12 6.57c-8.37 8.6-10.94 12.7-18.74 21.86-7.1 8.36-14.75 16.92-19.66 26.97-1.66 3.42-3.07 6.86-4.75 10.27-4.48 9.17-9.6 18.06-14.62 26.92-3.7 6.53-7.63 12.8-12.27 18.63-4.09 5.11-8.17 10.24-12.37 15.26a153.06 153.06 0 0 1-8.75 9.84c-4.36 4.4-9.38 7.94-14.48 11.34a593.41 593.41 0 0 1-16 10.32c-6.55 4.09-12.1 9.57-17.55 15.06-2.28 2.3-4.53 4.67-6.97 6.77-6.05 5.2-11.52 8.38-16.92 14.31l-1.99 2.1 26.13-1.76c1.06-.72 2.75-2.88 3.58-3.88 2.13-3.24 3.52-4.68 5.42-8.07a22.97 22.97 0 0 1 8.55-8.84c2.84-1.64 5.57-3.3 8.42-4.92 3.9-2.22 8.05-4.13 11.75-6.67a568.11 568.11 0 0 0 22.12-16.06c6.79-5.18 13.34-10.69 19.99-16.06 2.35-1.9 4.35-4 5.91-6.71 3.73-6.5 6.66-13.46 9.23-20.53 2.05-5.64 3.89-11.4 5.88-17.08 3.68-10.48 8.72-20.24 14.45-29.57 4.46-7.21 8.35-8.09 15.9-11.54Z" fill="#F91155"/><mask id="c" style="mask-type:luminance" maskUnits="userSpaceOnUse" x="0" y="-1" width="147" height="147"><path d="M146.68-.8H.4v146.28h146.28V-.78Z" fill="#fff"/></mask><g mask="url(#c)" fill="#fff"><path d="M15.96 97c-5.5 2.27-11.64-1.4-12.5-7.46a9.2 9.2 0 0 1 5.45-9.76c5.5-2.27 11.64 1.4 12.5 7.47A9.22 9.22 0 0 1 15.96 97ZM9.6 71.18c-10.63 1.72-16.87 12.9-13 23.29 2.88 7.68 10.78 12.4 18.65 11.13 10.63-1.72 16.87-12.92 12.99-23.3-2.87-7.68-10.78-12.4-18.64-11.12ZM33.37 65.13a4.04 4.04 0 0 0-2.5 5.74 4.1 4.1 0 0 0 4.75 2.05l10.76-2.88-10.73 26.93c-.35.88.44 1.8 1.36 1.56l26.27-7.04a4.1 4.1 0 0 0 3.08-4.16 4.04 4.04 0 0 0-5.03-3.72l-13.1 3.51 10.71-26.9c.35-.9-.45-1.82-1.37-1.57l-24.2 6.48ZM138.27 36.86a4.12 4.12 0 0 0-1.98 4.75l3.5 13.03-25.5-11.19c-.9-.39-1.83.43-1.58 1.38l7.22 26.91a4.1 4.1 0 0 0 4.09 3.12 4.03 4.03 0 0 0 3.7-5.09l-3.53-13.15 25.5 11.2c.9.38 1.83-.43 1.57-1.38l-7.23-27.02a4.04 4.04 0 0 0-5.76-2.56ZM83.52 50.82c-12.78 3.42-21.1 13.74-18.61 23.05 2.5 9.3 14.87 14.08 27.64 10.65 12.77-3.43 21.1-13.74 18.6-23.05-2.5-9.3-14.87-14.07-27.63-10.65Zm2.1 7.87c8.83-2.37 16.7.6 17.83 4.85 1.13 4.24-4.18 10.75-13 13.12-8.83 2.36-16.7-.61-17.83-4.86-1.15-4.25 4.18-10.75 13-13.11Z"/></g></g></g><defs><filter id="a" x="-7.23" y="-7.41" width="153.04" height="153.04" filterUnits="userSpaceOnUse" color-interpolation-filters="sRGB"><feFlood flood-opacity="0" result="BackgroundImageFix"/><feBlend in="SourceGraphic" in2="BackgroundImageFix" result="shape"/><feColorMatrix in="SourceAlpha" values="0 0 0 0 0 0 0 0 0 0 0 0 0 0 0 0 0 0 127 0" result="hardAlpha"/><feOffset dx="-8" dy="-8"/><feGaussianBlur stdDeviation="8"/><feComposite in2="hardAlpha" operator="arithmetic" k2="-1" k3="1"/><feColorMatrix values="0 0 0 0 0 0 0 0 0 0 0 0 0 0 0 0 0 0 0.4 0"/><feBlend in2="shape" result="effect1_innerShadow_319_2058"/></filter></defs></svg>